<mxfile host="app.diagrams.net" agent="Mozilla/5.0 (X11; Linux x86_64) AppleWebKit/537.36 (KHTML, like Gecko) Chrome/139.0.0.0 Safari/537.36" version="28.1.0">
  <diagram name="Page-1" id="o2eTWN067NettnXD15FL">
    <mxGraphModel dx="3430" dy="1925" grid="1" gridSize="10" guides="1" tooltips="1" connect="1" arrows="1" fold="1" page="1" pageScale="1" pageWidth="3300" pageHeight="4681" math="0" shadow="0">
      <root>
        <mxCell id="0" />
        <mxCell id="1" parent="0" />
        <mxCell id="k7D4iroLJhiQljq5lRiS-5" value="" style="shape=image;verticalLabelPosition=bottom;labelBackgroundColor=default;verticalAlign=top;aspect=fixed;imageAspect=0;image=data:image/png,iVBORw0KGgoAAAANSUhEUgAAAJYAAACWCAIAAACzY+a1AAAQAElEQVR4AexdB5xdRbk//Zzb+93eW7LphdC7QOgdUXyg8kClqY8i+iwoIkVFmkoRkAgYIgQIECBAGgnp2STbe7l7795eT69v7m6ym832bEny9Pzmnjvzzdfm+8/MmZlzN0G0/1wneAQQCFwa+ExPmj7N0+Pviai1F0I47fm0RLtXc1r7TH+GtmYoZaZ9miZ7vRD26j5m0e61PtW3oa0ZSplqm8dI3wCEaQd6e2rvLV06UT8nfAMmFvjBEPb21N7bxLQcp9z/HlgOhvA4hWI4t0aBp78P9meGU/D/hnbCQvjvAc94+hkycm8euWY8iofhmXKFw9j4NyQhI/fmgZopistghf8BdIrCeuwm0sGATlFzTkQ14+nLQ3kGKMcOwhMx2tPi83j68lCeAcq4IBxAfFra8B+lk4rAuCAcQHxStv4jPIURGBhW44JwCi1PraqBdkyt3unUNsTnIYSRrA9iHBhWJzaEA+0YqdnHH32Iz0MII/k8AmMvhGl405+RZP9DP54j0AthGt7053h29D++jRABrRfCESonRv735J7Q5DUh5vHGEz6eIJyWFo43EkfJN6HJa0LM43boeIJwelo4SscYpaovgDJP04G2SOueQGNNx+6vOvfukHiur2o670P9GkoZsD9lEI5mZMDcMcgN6RgDng6pOuiepqlJX2PH1pUt61/p3vNhqGFry44d/vqdwbYdPV/9w7vlHx0f/7l706ruze+Fq7/SNOWg2NF+DTh0UMNQv4ZSDrKCrxEgHKIVsI6eRjMyuuQM1fY3aURPFVlu3r9n83tv7l3zkm/fp3wiKAhKNEI21cJuh86dme125HIxTFUwVYXFVFjhgnywKbbhLSHQPaFGqIrMxcKQdtClER0an9IRIJyk1vHZnlmuMZqkquqWD9+u27GJUqIGXGBZuaEl7g0IVpuluNzNpQRAkmQJNqO8osKkhhk0BEN1EAdDiWSgfsy2yEyc665nOw+E9m/u2f1xz/4NtZ+t7N7+fnL/puj+jf6dHyX2ruca93Bdjam2mjG1Hc4wAoSHs4wvf7BHjY95HFxHqe/oxFLx2Io/PtzTvntuCWK3k7EU2u1lDUaLw2RlUkkNEmBUwUgEIWBJFiQphUIwJGEYCssS0uMVEzQ9bIs0RWrdtdVbvTvcvDNSvzXcVRP1NbFMQNUEk8VQkOkiUVKRRD2MGHQWSRSYaCB84KtY/e6OVX9lD2wHVcOqHSD2tnaSEPbq6FU5Rifv5ZnI7Sj1HYVYsNvz+pO/y3Rgi+fkhMNq3QF/OBB3OJwWioI0FCesioAY7DYIVXkhguAKiuohvRPS4Swrcpie11Ewgg5tmhDsDO76iOC65XirykRFRVAEFsMwHMcFjtVrEMeLGIISCCxpqsimVE3raK4XIVRJMWZK76nd1/rx2zLPDtU8QOlt7SQh7NUxoHL43ADOw9dPG3UswwLHhD2NzTs/WrSwKCfL3tnBebsYM+HOzSxENVjicBQxYxBOkbgmq6IiwgiEE6jeqAqpKE9zEszxcjjHgJtJCjrsSjVXx3Zvor1NgiiSOr1ZR2Eyr0Ngg94AawqGIBajRdFgPUbqMBKl9LjOAINAMnS2O0flWaPRnISxggVLckpKQ7W7D1M8fHaSEA6v9AgqcK+PokF931N/Hx6sfsPDGdRUZefHb7Zuezca8Ksiw4l6jlMzbPkWvRVC9RKLkiSFKhCmWjAKF5E4RihmuwlB5VCUi9LJGMvoLS673YWYKZjToN5LU2S6aivd6RUTSZkXdARAT4doGE4YMAQTEQxBEEVDjRDBgv7AMZrEywovsDGMIFCWibKsoLMwZkd2+WxEU3EEduh1aireq3vE20xA2G981JD2cx1NZqKa477GuvUvUUg8klTsNjPHYUw4Ueiu1OkJAeKTgbDeZNc4G2UiNEuzjAdNJlKGyfa2UGtrAoFJMB06bDariUAIXkMknGOA00IyHt23nfHDsGqGVJNepydRQuNlRCMQ3KhACIETMKbXK1o4weGSCHyWEC2RjCbphBoKi3oThOM4gmBgpSqLEKRBmqrxnOxtA8pHSTMK4Sh+zFhVzN+9c+1rnfs+ikdj0QRkt7pYGiJQSk/pRITlRVpgBFiBSBNsLOyEjH6SQm0WS6cn1NXuw1CyonxOpsWUmZFnd2VKsKLIqE7ScIFNdnfED1TxQVKWFVXkNZTjaYyNopKCgG0jR4cUTUI0CAdlWUEoiDKSgtmUZBKJOAczGkYQnKLpCQpDMZfD3hsNWON5SFUB0r3FvtvB4d5X6LtPFsJhVPYpntH7uLzQNK1px8b2PVsxkYuEIH+ANxMGRSVJBCxYRJ5JKIqmqRiGaq5ixGKXHHa702qRRWXHnvpwOFaSk1uWDR58uIqjHBemmbgiqxgsahjFW9ycp0NLwpAERo8EG3gVJQWGQUzgSaoKKqsiMAKjUpwTRcgXjdr0ehmBU3QinpIterMdh5KiDAJms9tzMjM1DdZkWRMFSNMUURANZlB1KA0GtJc6WQiHUdmrd2ZvY3shsGDu3MiE24VExO+PUzpDnsNF6UxiIqbJIKmkzoErEFiH5pdkOm0uHQ7BqtLY4ovEhLK8gtMWLrE73ACfcNQjCCnKgBIErQq0LJKsLk+QZDkKnmoaTGgSriQ0gkMVgZJoLsxLEk6B5Y4T1ihZgTgNzrBZYpISTdGRQAQWeUITWQhGSMrlzgTrHUVRZY6F+iCEYV4FT07b6MEcAcJxdeuRNQ8SH1QYQWY8PCOIjkXWNK1229raL17y17eyUZqVJZNRB2mYoOGxcFxntBOoyWSwZTmthaWZTjckY+FAwk9LmKaZy4tnFebkWh1ujdTHk4FE0q9BGqEjMExBELMmQjCZA6VSajSuqqQoohyuMYiqQSKd6BEVRdYIvQ48F9FENJ5gRBZCFUiOyLLAsSm/34kgbrNJ04BFvY4yaKIoCyKsqpqqqhCkSiKEoAZnBmW2QtBo8UGGj8DY3Xp4uYPUQeKDCgcZjvwaD8+RMuMps/HwO88/Qnu7TViehmI6iynf7aAwEtYgELY580rBXqKgNLOwzKmzIdUtu9t9LQwv6gk9qsgMm2IlMcUzSRqsOGIQRvadhop0jEuqHM0QSBYcZeRwhNdyOAVTM3ERl/V2CkHVoFeg5HxKyaSjVDgc5wVBlkSM0BBExRXRkExlEhSkN0U5gdYQkWVQBEFhDZEEFNLAmkZWVIXQhVK0YsuAULDpHC0+I0A4nvAc9zz+pj2+3esXl1Q4jGZeYx0WyGbWoSiSm+ssK7QW5pj0FGUxU7jZGBOCLMS6s5xmS6bR6CT0RsJkMVktGKxF4mJPIBEKJ2EYIXQmgkBgGIJBxLUsLcnLipFTCzSdDs2FFYhHYCnc2eppDpvxPFXSYBMP24KUVUdQMAYzmMYSPSkiRiXAwxEnMEWyYKiVIOxmM8ijYDyC4SZLKUWFFFnGCXNekd6dDaWvoxiFabET+BP3ttR+8maivQ1RYQiTMKNsNBCQChb5KmlKr1hAN4dwMpEMROggx4NHY4aesOdnz87OrjCbMnHSqmo6FXHoTe7y0qJ58xaUF+cRqKyIcU1VENgGK/mKTNJoMas4EDsJuXhZlGCVBdsRJkW6DAVWt4y7Y7yS4JOiGArL4RQUoqCEoTvJsbis6RCMJEkMo3CC1BnAQ1eWBLBRFBV1e3tndyyumq36/FJzYcUh6OCRwdCOx1E4srtj1Kg8w7buju//PNnRhKsIBmmoXtNRehQyIhAFw4QiWAXenBREAcYFFYcoO6l3YRiOo4KiEQlWSjEsLwF8NU1VZJHjBQWEluVUOgUeT6LebNXp8nEsQ5V1Am0TRFU1MZpRkDkaluMSz5J6fU4ebC8OkMa4REdoOpDqoOiQpSG4z8PsJqWewlybm4Iydfp0S1BMViRG4IMpxpdgO3uC+/yhrOyc0uISQ+Es0pEJeGDwGSPB/08gjAd9XEdtsPorJh6rOtDAMBxGQphRthqyRJUSBQXEAdbpVSKlEQwKZlMSUtSkDmMJlEZhTk/ojLhg1ik2gBEJQ3JSlROSFJakuCgJopiCkRACdvSSVWZVOqxJvFEzsoopKqm0wgdliZVVlNKRmijJEioxKmk2WzN4TJ+0zuouLk+cWVgxz1GIozCi8jwOsajGwBB4EEZkOMzwcV5SMRIhyMUnnVqy9ExT2XzMYAYOQ9ChQdhbGOk2jRCOy/5Ifk2EroENdjKosSlVllM0ZzMZMRxDCJNAE4FgQJFFFNFIo15WGRhhecFA4S6ns9hhzan6ZN2+dRs3rXr3kxWvNG78oGPbZ+1bPgg37Io018a6OsHiXhTDguDDoCCKkKhiV1UdnyJVRK9YYgrM8BwjSWwywSkAOYYNB5ia/Q3heKcui7bk+Egzn59DOdyKYoQUI6y5ETULkV0cR/GcCrd4g81ef4c/yMkq6XDlnXzWnIuvMeaVYHrjYU0fxyCEoGmEED7Ml+nLyvFQsn5X3YH97R0dnf5wV0+kubWrub0znEgpmurOycJQBKeMCIrjluKik2+ec+4VmYvOVhLBxObXc3Baz/sJxo/HOxKdjdHOhq59W/hgq47rMTF+yt/6xbvr1r2zNhqUUcXGaxDNwhBBSkQ3R4dYNkInOlPhtlSwOxyItre1Gcy+0y+yLTrdZjIhUlxVohY5ZuG8KBdO8bwq8JA/jDVUszX7/fWtXSynGG0Z88+4cPHF11SedaHBajvqECFHLXk8CIZqd7RWfbl2/Yb65qYmX7Dd56+t3n2gem9rc0NtzYHddfVbtu+2VizJOXW5e+EF+ZWLIU31fbGi6vn7PNs/lkSJIvHCTJsRbPIglbLYdSjkzC+jESNDOXpYEcy5Wfml55x3qc2ZHeP5JBP3xeqavdtDIS+kJdloNxthQl4uGJAKbOrScqsD00FBPNUACU0GvotivCk6RDMMVt8a2X7Av7M20toWSjEyjBmyi+YuXX756dd+I6usAkYmC8Fk5Y8VkJLIN+5Y31yzu6O9NRkN+Vpqazev3fPOK8lwgMSRcHdXw4F91du3HNi/E6F61w4QFPN1tLzzp9ZN74Y9rRAYRhwXp5kUaiIwxGRzCHE/r2qYPas7kvREaAApllE+b8ky0mENREONLY31DY3hcNTp1AmppKcrGachcxZWkmuuLDFxgpqkZY4nunyJxnZ/Wzi+qda3tTG4uylc35kESi3WLLPFnVs6Z+6Z55/3rVsXXXSJK79oUOgm8dQ5MSCURaFl/85kNPTJmy8/dus31614+o0nf12zbeOBA9X79mz3Htgc76oT6bgsiTFPu5RK+hsPOPUIKcbDdVUv/+bBhKcpEeje+reHO6p3erq9iCykNIJXIE3Tkt5WBIYJTUIQRGKTnp4gbgRDcb6jsEQhmSQfqa6u6wmEGCalaDKlh1tb2zETlJGHFJRgBiOqWSTNBN67E9003OJnooI+pRrCNGS3ZZqNdqvV7czMza+cv/Br/xpFvAAAEABJREFUy8/+5i1LLr6scN5CQnewSw2CcPBTZ0KAIoMUHZPCIH8HFfrc2fz2iie/f/0/H33wZ8uXrP7zE3qEqf98LR9ob9j2mRpsrXAbbEYd4JR4AdxVOkGxyfJZs8JeX7gn6gvEY90tG57+nw//9CDrqUuxHGZ2whgO0JNFXlaUBMsBKXDiac3Idsw+OXPW0llz5qIkoEfA47W51UcQMEZAhF4w22SDha+Yb3dlYUYLAmCHMAxCNUaCmxt7WF6iGS4WD8qq7MzOceXmzT7ljNOu/fopV19ffvKpjtw8FDADS+NLgwEdQ2ZiEA4T4DH0j6N6kL+DCkA4EQ698buftO/f7WtuUBQ5Q4fE2upoibebjXMKMo2Q1FVbPXvh0uKiIhxDjSRlxnGNT8JsHOXjAFmKgDqaaj/d2/7xhh3hJN/jC0iKJkhSMhwQMIMgaySsogSpszmNZSeTeeUkJSWZUJc32NLURdNRVeHAA87qVAuK7ISe4ERFVg08j3C0GulW6qtTXp/O28nZs3IzC4oWnH3B9ff8/Oo7Hjhp+RULzrsof+58nalvbwDaMY1pYhAeGeBpcCzu69i37p2a7Rtr9u664+uX3XbBKSBwwE6WXV+Q6yYRMaNkVk5GRrSzNREMkzhmh/lUe41djxU4DXoE0RtJBJZlNpFbXpmdk2MxWxBNk3kpMytbtBWxyThHMyzHcyoicizMJWBZ0ueWmxacK+p0oiLwMuzxhqLRkMNJLTqptKyygCRTfl8glSSaa71VO1t2bqnbv7W5qzG86as6d/HcS265C8B24TdvP3n51SXzFhNUej4A3s5kmhiE0+3ZV1988uiPb6v/bNWLD9+/4qnfCj0t+bkZRgrLsJoUQRYSiYhMRaLRaHeHJPA6o0kKd+fk5mTn5pafdSVFwrOKcoqthjnzK0tmVxTluVU6WlqYQ+KowqX0OjIQDDKSqmhwKkUnIkE6EtjeQRMLz9DPWcwooqhI0ZRQX9+YV+w645zyynnFkAS31nk01m3Rl9XX+0kFkhh+51fb3v/sSxwSVVl89W8vVO3eeVhMZqCHH2btUPb4gvC9f/0TvGVRVQ02usFw0ZF6T1uLG4wmt4EiMUGG1FQy02aiE0kcwSyITObOUZmoGmjNmH/GqTfenZ9v5umUO7/YYqJUNpJbVIhBSkGGVW8wBHyenm5PD4/xChRJCJrBZT3pkq9983pLdgHLMJEY1+GJglVmdn5eIsp3NIkYn5WMIUTSv2fvnm3btn768drK0qyiDJvVYvGHoggML5md5+/x3nP7d6OR8KFgHpvv4wtCq81BEMT6Lbu69+/w1e3r8XTJihqMJGNJHsso0GXm643GXXsOGFzZeqOl2RtFws0xBRcxY3TrajYRpYoXu4vzknE+q3g2gqBFpSWKouRXzCovyjYY0utAGwlx0WAsIRDOspIlSyRNF0uIdQ3BFC25HAa7xeg0ujEB2b9t6zvvvtXjadPo8IJsfdmsWRwvqIrsNiB5GRkAKEGBYE1bfsHXeJ771z9fB5RpTgOLkIHcIZPHF4SL5s6OheMpJv1rokMeQrIqe/yJ1qbG7s4WR1aey27vaW1RBJ6R1JJZ8yyZ+clYhPOkfwHNIzrY4WY8+0SOLpi7mFHRvNnzKIq0WMC6gqV0OgwnMBybe/aFjsKycI8vHFNhwlCQl5mXlxNsa63/alN31bpg41ed9Xt3bv4i10FhMJQKeFwOpygpiQStCDQOywiC2DDRbrOevGwpcHL1yn+oqgIy4zzS7OWc6A3uF+jP9WN5HEHYUl21+qXnWJ4HM2dhaXF2dkaO3WgxGbNyCwmjEcNwt9ka83UpTGrxgtls2DOryC1TJnCqomKYx9vNx0NgqwDDsCEjJxXwyqKAahJJoiZXlsImwNRnwKHKsy+/8aHnDQ6nwMQ4hjTZVYrCVIHjY0GEiVgoBEiJglSWbTfpCEXkBY6lw/4MqwHES4j4NFAnik6zDuYTfNQrcAwCg22F6Pe0Q+mrP7zpwnR/+o1NH4Sg1SO2wt+wu2XLGumwnyoHujvvv/Zr0XCIiccC3R6KIGWeKy0rAUH0djRzHOO22/MqKhGRz8nMtJNa5dIlcLwrFvIXLDl33iW36IwWiY5CMMJLSguLS2wKBpcqwTDKhnsMVpvN6XLZHPMXL9791XowFmUEt7vtsQC7efXbDdu/CHvaSEoHI7AKYUazCWgrsOkDnk4cRSAYZkUFfBOwjJG6QCxpNlBCMmYw23hRVjWIE9TujpYRmjpaEEYQGZY8mh5kWImpIPb3kiOV1W/77MWf/vf2FY+997Prqj98pa9676YvMJxURQGs9e1GnSRJZpu9oS39F0PgzEWHoXwikuxoqKzIhSElxCginSo566posMPfXteweTUHDlL8zWLrNvC+Z+mcclnggNpoMKDJvMwz8QQTjfNFCxZ7u7u4VEpSNIIiV/3tzz3NNVYD4czMsRpwqysrK78k26p36KlsM16WZfV0dsEwpGrQrr17bGZKlUVVknGCmFtejOnMemc+wwsZTrOqqv7ORmBuuDQ4CKMBMZz0AG2wngF6Ojd9EKa1D/t5/41XPQktloQEOr5/zd86927a9umaVx5+wOxw9/EnGaGlqTkRDrCphNXpApstkzm9R9br0GAgYHeB7TsCWTPaGmpUSezY/rHI0K6i2YimCDyriazIxLmonw77CL0RhhHMYKrq4VSjOdjZYHNllVbOr9q57fN3Vs4uyciwgP06bDPhKKypfMpoMqGQokEqmeyxkrCsoZqiQAjmcrstOhgwCQgpcUkl4VdEqad25/ZNn5MEceGZi7sb9mz/4qM+50e79wNx9FgOo36mIYyGAru2brUKiYC3p6sjzimmv//4O3954AcauKT00AE+8qLidruNFGbREdnZOXqcgmDE7nJBmgqCEO3pRlSWZ5MqgokSgoDpDwEvBBWYNII3SpTZCRYXuMnCcSxGmcDUx6Lm5p5EYWHFGVfeYtBR3Q1Vor/+/HNOsltNLJ0kMQ1FcaCZNJg1TTUVLTCRuLV0YVbl0szMDIGlOZ73dLZZdChMmPyhEJNKzCnJkxUVceREAx6eTVx8aqXFYn31pecioSBwflwJNGMkvl50e28jcRxG7+WbUQhVRXnv9z/N0iOlCxcqDmeI4YPBSH55viSJwC8xFTPoSNA6s80ic6mF8+fOzs8hmagOBRGWZZElrU7AJitaLBJDcVJkE3qHGzdaSYOJ1KUHHIKCtQmjM7ucc0/TZ88yuzLA0JRFYXert2jeHLDQ3bPxw92fv1dWVqpEPTIdL81xW2x2MDMb3XlGd76jYLbBbMN1BtKVi5A6s8nIMiyqM1RVVZUV5AEnZZ4G86rBYte58hhZ1ZmseXl58XjS3+0ReO6NV/4M3JtsAu2HoN4bNPbVyzdlEPZ2iDGMcqlE086NRhzu9ge/df8jvN4UjkTirCyDTg3DdiNJkaTZbOTppM5obm318ahOUySjjsDS2rVYLAIiC2zoXNmkzanwqnvBGQhKIKoU8jShJEVZXQhGSgJvyKnQ2VwwpDmycueU5j52140fvPXm1g/fivi6cJxAMCKtREfhkISiKIiDyZkFywIf6OBCnTgYjqpCC4LZbqdMltYQq8pKsYOUZAki9IvKC5VUgGZidCLESRqGoPFIQFJhMBvEIyGgduYTMlUmQSDGVPWvZ35rsDmNNvs137t/zukXPvDs6+bCsvaudMtVTQslecJoFkRRVTUMxUSe6+loZThGElIOKy7zYNSlWEmBANj5JeAppWkwoTe7Kk+CwUbCkZVTNstod5MmK0nicioiRjwmk0mHqiaj4ez5hbmZDgKDcBwtKpvljtZlUbDJYketOUZbBkLqgx3NdMgrsEmJozUYBbuFTn+8eP7SM2/8bnNMnDOrxJZboncXwZTFYjalRLnb7+1oaaTp1CmFVo5ld9e10snE/p1bWhtrxwzClDNMGYRjela7fdO2j94uKp915T0PLbrwasBfNGteyaLT9TnFEJx2gyDJRMAHJltQZXM4kkzKYNLBkArDkCSwBrA71yCe4aiMfNJoUBRB5ANgvpUUlTBYEEUETzUYgcHzjLQ4pWQATIOGnHIYQYE2nudPPe2UvNyc+XPnluW7rGWLeQ1RVAXG8FgkmIhFRI7hBMkfDDEsH/O1c8l4ZyAMqj7ZvCeWpPfVtX7yVfW+1m4dRSYQQ0DR8xy3s6YtJ9OVTMVpBdc0TZFlSVYS8RgwN8MpHbsZMBkLh9a+9hfCZPtyb+3ccy7ttzjv1DMFQYA1FUPT22q7zXLxReeXlpcnwwHAE0+xYEVodmWiYORZKWdmBkESsZC3p6EmXLdLU1U20iPGAuBlEXgvQVAGNhEhSUzhUwhOwjiJ4pSmqTRN+wLh9evW5RYUGA06EGwe16s6c6S7LRGP8r17U6PdiZodEIanwJskFGM01J5d8NGGnavf//i02flXnFSe57Tj9sKoROCaojfaPEktwYP9fRhGieYwb7E7Sb2RMprnLz4ZuD3DaYYgXPX8H7d8tb0rFKesrkTz3tDOteG9nzGexvKivNkFmRaz0WSxgpabjAYpFcWFhMCkQFFStBgtxMNBMBBlkc8vLiioKHVk5yvgEjmweAm37lclQYM0k9mgKSKYh3GLS+ESIs+GerqZQAdMGDmYsmYVUDjKhnwSk/5zS5yk9K5sY0YBm4iCzsELkobiIpNUcUNNV7gHsj7x1hf/fHft9n11V19wZnlFpYhS7T5/UV7uheedY88p2buvNs4TF56xxOlwVXtiPf5AMhFvaG5VIRTDceD2DCdkqu1pQxXW79tjhAQYhhEEOWVOae3HK0O7Pg5uW1P96u92PPurS05f8MiD37/z1hvzsxySAnZ6MozqMBSXVVUB6z8IAiFmFCqRSHXWVaGQjKusxWah7BmUI4MwWu1OpxmcYfKsJAoyB94iBTQUp+yZ4Dnprd3WUberq9u/a+eOJfNKjWoSQlHEmmHNL0MwXIRQTG/kEH1jgN/w5Y79LR3VDc3WzPx3Nx/IzCm+4PSlZy2skCHY190ZDIe3HGj/4IP3n3/hhQ5vcOnCBTkuC5uI1XX0NHf5U0k6RbMwBHN0TFPVoc2fbsqUQwgf4TGTSv3mzlv/8fqqpXMWXHXVlfl2PUX0GgUPLpyyuqxbV2/68r0tse6myy8+7+orL7Jn5sT8fljRMASs8tLaUIJKppKQweUqKOaYpJnUlHArysXAYSkGBpTZ5srOAlFM0jxHR1EMVTUo0dMusjTPix3eUDwWnTNvriGzmCxYgJvspM7AS2qI0Rp8yaYopFryimbNDccZWYFJs7OqunHJrMLKXKsOxwwGYyISxMS4asz49jevu+T0hXPmzdu/ewdFUheffRputNGcaDRburxgno4SOE5zKgSnHT4iAtNdRKbbwAcvPDcHR04x24mgfz4W0qe8OJ+USHP1Tq+/uZugiFmnV5afNjendFD6i6QAABAASURBVE5xxewch+nc0xdfc90lOTkZNpsdBARDYRKFQCYa7OEEWWexKyLf57PJmSHRcRTHEQRtaahtrt2L2/JxvZHXYJ01A+zhZMKSZCWTHZxLI2Ffu6ghIoSFI9GOMB+RKFpQRZ6HJMFkzyyduyihGbfuqZtVlK+DJbPR0NbS5KnbFaRFxlSYaTdqQkrRtFyHccnCeR9/sfH5V/5x3tK5hVlOSeCKCvKMOhKc4Fhttj7HZviOTMjeMLPkqPIv/uah+ldeyiaprLlzFp+1AIQbvPmG2CgSbi+rMJXNzpJSYT7QYLIY9DpdwNclYQZB71z8jXuuuenGm+++BwGvdWxWDSdpUQHgcRoeCwfCKR4l9XpnDoTiLMf6vF5ZknF7EWzNC/R4w0mlu7MrGotHBXz3/jqjO9dlxsBJDegFSYaORcPdSe39Va8Ht66Eu3Zmuu0cExeZWH5hcVNLhzMjQ5MYlkmxDI2gKJq7IDM7p6ysmOYlDEVwnQkM+FOXLhBRvT0z96MN279zwxVgdIKj9gvOPl2HKSctXQzD8KjxmJbK0SAcCtiEHEzEop9/sEZStQCqWzTHWeA2i1GfwtEKjIqSpArxRDwucDJYW8ikjcPMPZ3NnRFm3xcH/v6de2rX7dFFYz966EmJMvkjUU5WvYEAmBQbPRGDMzvJS7SMhHxdGgRHkmJNW3DnhvWxRErSEI5JIijOiFpzWztptmdkZiAwnErStKDWtQXr2gL1B6pOKs+xZRfhekvNzq3hHk+wtTrhbTppbqlBivo8bfGe1n0NrdtaogydgChzuy8Czt7AtKlokCywAOCrzqw0GvRNLS1f7qoudOjLi/M3b/0qEAw53BmTg0g7OvHRIJwQYIfMD/jx1isvZqIQ5nLZHIRJT2owrMsuQ8xuf1tjKhYRWDHUVGvNK7YsvpiRtaTARfS5nTt3Wfd+slBpzwnWgwMrfOUKcEDZpxmMSFnkFEUWwLrfktXa1hqleZ09ixOEXbv3qZoaD3kD3vaulurOzvbqhiYFIXGCRGTG2xOpava/t2GPwCRxVVhcWYJAiqe9OUhz66vb3/hwfYJmmViosnK22+1SFOXzxmSDN4FhaDzF7T9Q19XRtWtvTdWBunAkzAvAA4QgSD2JBxLC5k2b3v/w09tuuPTbX7+isKT85tt/1Ofq0d7hkQUHojqUZzQIh3KPg3LQj5b62jee/7MOJ0wu26JZTkxm+EQk5mkJJ9m0O5oW6WjXZ+bydExBCdVgXb36/cj2XaXNNRCbBFaUaIAXUnLj/sW2bAhK68RxNBmPWLMK26Pctn21CV5RcV1DkO8Kxjme5gVw4I1KogDWhGBvQBksnZ1ddru1viPwxd6W6pYuO8yAV+0ui1GIBzy+YHtc/XR3oygJs8vKu3pi0WAo2dNeMHvJ5zVBQU47SLNcdzjFCkKCZkRJ5mUoyXC0qHV3+5KcynJ8ipMgQldd3/zhx1/MKc41W2wGowmarisdgZF0TxbCdHOH6K6t2nPn16/GZdkYDKoecCyJI4QuEgokFAw8ZmCdSYRwW/ks0mZjeIlB9bAGueJ0mT+iHVIHW9PvJSSXvUJT9eaMICN0RmgNI2UUj8STmN7CwAbRlCvC+Pot25MixKCExx8NxtmOYAomTaFwTEOw9dv2rFi9DixM5tjUsuICu8vdVl/V0OHrYZDqroDDar7x8ovMFKnJgs/rAydkmCLoKLKvNQRBCpIcjCZBnxNUSJRVjz/GCFJf7d6aJpDpCsQJkmjs6H711ddvWn7aH379ICDOfJoshEO7xzsrXr3jhqtgBL58zgIwJoIUYjGaZFlWJImJx+yZuaoswTAM5kNFkansCi7g2fDyC5USeHeE9bcfIwwQDGOQiONCZ3snL6sghTltR1VNS0+8vt3X0OHr6gkLEA62HP5wPJLiYaNLxEyoztrV7W/1x/e3evfVtkCadvrcAr3VWTpnQTSejElEQoAbvP6C7MxTFs2nSCLbZcl1mVCTPRqMaJLw+z88eeeP77/l9h9k5ORRFGU0GrMynBaTPhSJROIpj7cH9LFwnPb0hCAI6IZaepKwJgfi9Kp3P/zhty+CxPQUAqqOKgHdY8oNwzNZCA+3mYhF/+eWbzz5q5+edt7X3vx8y/nfvwPUFuUXfNwY/teWGtnodNqMsJAijemDGE1VNL2dMpo9B/ZKLX6VThEw2P4DCchEmuk6TyKIyTC1LySAxSFlMCMGG3toEKSZICgZC1cf2C+rUCKZitFcS3tXd0/Y0xP+am9tS1sny6dfYM0rdDmzcpcsXkTHI1V7dkGavK+1Ky/TXVaQJ3OJjoYqgw79wRMrSAwBkzAwRCDQt2+/464fP/CvNR8vv+Qy8ApQYBlBUnQGE47hQKeoQpt37u9zANxFWWNE2GAwdLS2rPzne7J/sybRgH5UaehwGKpmGJ4pg3Dr+nXfuvDs5rqah5978dEXXrU7XbMuuMhWVMSkUgf27Y6p5KufVz23zVfvjeJ4erQh9hw0q4yLeDvqWy2QpiO0LDeBIhBmcCS6GUkjFNwQDGg+BtKbXf44o2oaL/BGo6liVmVGRqYJbEMIDHifSiYlRWMhSkF1wYRQ3eKj9MbS0hIIgooyLJlWfUlBbopmvtz8Jay3fdXoBWd4FUX5EKwkEhGwzb/h3t+b7O7TLr42wggsnWSSCSAIEthT3Pvgz9/7ZP38ZWc0NLc1Nrc2tHclWTHBSV2+IGAAqbR81kOP/wnSOwiD2awn33v7ndoDNWpgC6SpoHbGEgjCZG11d7T89oHvPfKzu8+66OJ/frHlvEuv6NMYDnT32CWBxGGRT3bWOdzunKys2gTSIekBA0roEFVBVMlstlscDlOGE9PpUYyQUqooQ4okSwwnsry7zOmJRxUNTiTpHLcbpuO+hmoLieWY8NysDIfNBoZIkhNDkVhjS4cvGMFQ5JJLli9dssgK9tskkVtUwgpybWOLUYe2pWc/7aQ5pWwqbIR5nTnz5p//xZVTCJw5+cIru9pbOY6T5fTYBZS+lJ2T+6vfPn7ZlddAEJjXYT0Ob9i0Heq9zjjn/Nff//i6b/7X/CUn1XYECRw3GI3PPP16IhpQ6Y5elhm6TQrCaMD32L3fvffbV3Q01nzz1jvv/+0TRrOl3/Fdn79flpcP4ZCkaTIE0UzqvkuX3HXurLnZ9piC06kkxYUJBIlVNxEYmurwJwNR0pWN4ATQgMIabjGncsn9HV2clA4rCmnJYA+oAoljaRelGVm/nUJUDaw1NFnRQAZUgUinkqlUPFqcn1NcWEAz3LqNW33t9TTuBJPtrDwHzvbgYJ1cftYPHn6+tHJBWgSCrM6M/Io5wUAAPnwAHXru3P+/vyooLLIaDcEUb3Vnf/t7dz77yut/XbESTAlA/JeP/qmwpLQ1KpIKG4/Fn376rV0bPti7fQuompk0XghlSWrav6th7/aGPds2rHzp89ee+ccff/7rm86r2vHld+7+2TNvfPKt2+5RVbW1qcnf3R0IBD78YE1nQ03U68E0GQQ3opAmi+2jvY09kXiksz6YoLua68AbKEhVZEUVUAKETqVsarDDmOuwVxTZSjK1BSWiykVZWUXSToI34+BAtC8oOopCYGjByafPyTauWv3ehYfGPaiVZOXTTz/dX7XXYDK5XY4oLeJiwuzKmXPG8lvvut9RcVrYPO/Ox1bc9bPfFhQVA/7+VDJ7fiwSTvja2WT8IPHQc0ev17/xzprHnn3h5ZVr/vXx+vt+/utzL1gOwwerCZJ8/JmXML0lqZAulysQjL+/ZnNnS+NBJeDrUFcA2elI6eiMrldR5Leff+LO5fN/94PrHrvr64/dfePbLzxRt/Uzo8l61f888uIH25df+y1975Zo3cdri0pLM3NzMzIyylw6QhaD/jCBYwJp7vKFUAwHeIBdFTAnIvjHDT1b6poRcEFQU0snZDRLiRhls9qdmsEC92RY40R6ZKkmC+AHCTxeJJ1FZ06fQ/Z4fZKiCpI8e9lZTZ+++sQzf1l++VWApy8BFLuD8WyHWVRgUuNMJkPe0gu+96MHb7vngd//+ZXnXl1ZUFzax3n4vXz+EtCbkomot7H6cHpfniSpxUuXASz7ikfcc/Lyn3juJT8L63SEwkY7mxvXf/j2AM9BrAcIU5sbG8JnH7x905p/zjnpzBvv/vndj/z1mm9975GVm+558YOrb7/v3EuutdgcfQ6B0zKb3d6LSJqw9sM1eqPOZjNIsqpzF5iNxIH9e1yYqDMYwcP/pFklCIZVtXre3rDFVpAF4OmUYd5eIBkcPC8wGEfYbKkub1tYUnX6tDoIcrkzwRzriSWNVgekaWFW62qqw3BcpKOtOz79w1/+9tDjT1pt9j5mcGdFhafjIkfXhtRv3HoXoIyeZi9ehmA4x9A9rfWjcw5bO3/R0tPPPT8Bzk8pjDIYTEa93Dv/D8s8tcQxIFRk+b/u++2za6vueezF5d+4bcm5l1xxx8+sGeDE5Eg3eJ5fuHiJJKafW6qqfLXlS4blKWf2fl/8qb+9sWjZqRAE98BWKx9EJM7j9YCjUZc7Q6MM5pL0wPLS0r5ab0tnMsBorIYlfCFVEgSTbdnFl9z+45/84cV/vPfl7n9t2HPTbXcjYNcPQf5ISsFsMK4vXHi2v2kfDMPX33TLJ1t33/zf30ex9Io34G3193R1S6anX37T7nBCY11ZeUUhvx+MYDoW5unUWOzD1P/sN4/74yKvQL7u9jyTEmvZNQzTNJDGgBCEwzEA2GiTOphkSJIM9/6WsqF6H8+xX+yu/qK67aSvXWG2Wn//8qr/ffq1y5bNRmEIgWEvo5lNZlVWMJyo72jDbJZ4PAG7XV2YziPpW2IyzfC+CJ+3YNmP/veRW+/6nzPPvxDDcDDEv3/fzxWju5tHYQTp6Qlu/2iNpipisF7tXUmazJafPPTI2s07LrrsSp5wtoWFN9d8Vjnv4JoFGutyZOaEPO2KInqbj+ZXTEaTGTyVu+KQzW6LiXDDhn/Wrv5D17Z3w407JC45lvEh9aMFexDzGBAO4oX6J/Uj1YuSpDcaFUXR6Q1AZPfWjeAep/lAjCmpqAR5sEqcN39hweKzQN5Pi5/sOOD1ByEES7J8ZzgCl7hM+bnVHa01tfX79zeyHNQRTDCU5aSrrgP8g5IGXXzZFQkZ6VF03eGwv72dZiRTdkXNe0/3s+XmFz75/CuPPP3i43/5O0EePDA7WHuk4wfJfV8ZuYXdXd3JWCge9Mui0Eec0P07P7gnI6coQsPbd+zaXNUS6eno3vtp06cv7nrpx02fvJD01GgqWJuPT2V/sMdinxCE/coGqff7vD0eD4ogsiwbjEbAtKsXQoBrVnbO5dekYejs7GRZ1j7nVGvJws+awkBekmVfIMSLMFg0VrXWNoAJ1kgB2XAssbe2sb2rZ8lV18099zwIGhx1GLrhGzdVzK5MsHyYEzRNa9yx1ZhVHm7awUV9QLw/FZfEUazFAAAQAElEQVSWLz35tP7iwQwwfDA3zNecZadjelMiEpZFPtjV98dKw7CNQrJYrX9ZsfLr3/1BbkFZY6vnyZffeeLl959587PVG6p2b//K9+XKrrcfCmz6O9NRNQEsR7HXWzUChIPj1ss54i0SCrkzM0E1mEhxHPd2dYBtMiiaKPSM05ahKCaKQobblV9QgBK6ubc/xpMWu9Fckp07v3y202TKNRtpVu6Ix+ohuluvUvnZ9vy8c26+5cr7HgBKoIGhD/VdwMTba9aee+45oiKrZnuwvSHRuhs3OX17P+ljOOr7Gcuv4nihta426u/qaqhRVbDMmpCyNLPeYPjuHT/8yzsbVqyvffPLpof+svKaW39szp29duOOB//w8mMvr/7g/dUdm9/qeOc3od3v096GtMzkPiNAOGpvPcIiSVGULj2A+ugfvf0mk6KR3tEza+7CNFGDEIBk7yoDFC+99ps0zxE6nYDAPbFoCtHZdFhptgscrDCIWpPw4ksqb37iD2CFApiHTaCvXHvN1bNmz5Yd2Wjx3CQ4EAnVM6GuYZnHTzTbndmZGfFE0tfZiqJQ2Du6Qm1MzXqDaeEpZ99w249/+ewbr29sePbtTdfd+Utan/+b51f9/m9vf/Dm3/a8/eSHT97l37aqcd2L3dveBpme6g2J1l2sv0WI+1WRG9MEYBgBQlAzkMbwtbRiFgwP6Nm26XMABkVgOEGcd+nVQA3HshzDgExfuuE7P3hyxbuZpRXRcMCIcAgbRWAIFpl5s9LbtfI5C37xh+f7OA+/y5Kw/8t1L//6R3+856Zf3HTpa7/7WbCp+ZwzTp5dWfnW1q536mBNUw/nP7r87CWn4Ci8Z+M6BNFCnaP/7wLwRE3kFZeff8WNP/rtcwDOW376ZFJf8NdVX7zxrzV33vPg7x599uknntjw4ar3//6nPWtf3brqyS9XPNz20R/b1zzu+fz5nq9WhvatjdVtCnz5emTPB5y/+XDTA6E/nDo4PwFfE7FoV1sLgWOwppx30aWG3i0/y3Mmy8Edep/mWfMWLl12CoVo4JUTeEdodWaYbTY67L3w4kv/unKt3pB+oPZx9t2TIe9Td1y2YcXjyc4a2tekE/3Fdu1b52Zn4+EiK/fj5Rm3/PcdkDW/j3ky90XnXAxaq4FjppoqNhmJ+Qc9Xyej+XBZ0LlPPmc5wBLMtA+//MF37/3fhWecL+ndTbSpPQZ9vs+zfm/72i37n3nt/RdXrv3zqyv/+NTTTz72m1Wv/fWtf7296vW/rfrLI68+fFfI29mnczwQ9nGO615fvQ+EwGqzAO55i08Gd5CysrLBFhBkDk/u3PyO7q5dtS2+JB9J0fF4FNT+6KGncIIEmcNTW2Pt83ddrCV9DEOjMGSmMJGJlRe6bFYj5N2Bh/ejvB+REjJMSjybFhxj1kizjPSZvewsmzsL1Nbt3IoTaCzgAflJpAFXBnKHqUMQtLRywaU33vrjh5966o0Pf/X0q4+/suZ3L3/w6N8/fnLVlmfe2/Xom5t++cKa/7rv8WWX3Fyw7JLzbnng5OvuyV14ntWd89nKg3PVFEPY2doEfDXoDTAMLTrtnMO8PTK76LTz3HklGRYKvHElYVGFkIpFp1iG24OzNL2tlY5DVoykmrs6eUk0uPNQW4aKIpwKs4Ia43AhEUgmUzilT5sBnSj9dTQfsA++4nv3A8lgdycEw6mwLxU9+GoJECeeBlwZyB3Soh3KjP6tN5oXLDvr6pvvWH7tzXOXnLb49PPPv+bmq7/302/e+2ifINL3dfA+Tq0HuYf58rQ3kzhK4XBlZYXZah+Go5+kQb955tWi+adCKKnA+LyTTv/2T56AhrvKZlXe8PXrd1Q1q9bSy277aVuEP9DU+e6GxufXNHxwQK6JmlkiK8IhJpt7OOmxaEOafMrF12aXzlZgeOeGdQLPBbpaxlJxlPVDQT06RYMhPDqth0WhpXqvrKiiLNtdmYeRh/MNhkpnzX0STPefVD39r00/eeatzLxBrw76ZXxt9a17N11//VVnX3z5RTd891cvri5eeGaYA6fnzqr6rtoeqUMtLF9yVslCcIbXLzTuzHBNvvL7D4DXI3X7dtTu+erA1s8Ernd+HrfKGWYcDOHRGT8Uha625s6ODrDWB4fLNlfWIfIYSnV6oysrbxQmX0udpiiZWZkLTk4f7uQWV/zqudd+/+Krv/j9Mzfc+oMLr/nGN+64v2zxGTZ3zihKJlRVVLnwjEuuMeipBM26iueFfR2SwE1Iw0wy90M4xpgZj091VTvBYUoqHlEEJqe4Yjwi4+FRlPShVNzbbLAcnJkRBFmwdNmS08/5/oMPX3LDzRa7Yzx6xs9jstoLSysWnH5+yYJTIZFNdLf4Ww5wqRg0FdeU6+iHcIQxM15k03wiz6MIjKIogUFl806aKl9FPr2nFOhDb2LH1Jv2ZUymMRgql55y2gWXXH7TbSULTn77zRVb1n0Q9jTT0cAYYseiuh/CEYyPgOwQ7jTfjo2fgBf0Bfm5c+fNyy4oG8JzlIRgazXHcEM3GyOqS/syYuU4K1yFc3Mr0w/X7MKysy67vqZqz3srXkz4PaH2Gu2oDt7Gafco2MaCcNwqVVXxdTSbdXgi4mfBKT/YVYxbdnRGToB0ej2BT5mrEx2l51z+9Z8++6bD4WzYtSHYViMwB3/lNsjtiSodJDypwpTFJR4JiTwH3pllGOGKsvTPwibl12HCGorzLH0YYbLZoaN0zPgbLbaK+QsFjunxdIEZVVWUI50YqvRIjukqjwLhmO0a5JMsSYTeJIlCKCmael+sD6o+2oIANvZhX15Jqc2dfhkyjJqJuTmMAkAaT/yXXHTjJd9/aG9d+/ur3gp1NEDgYBBIHgdpMISDwjGedg20AMXwSCTG8+k5NBUe72N/kMG0siMJbDIOaYrMMzqDJV0/9DMxN4fKT4xy90N/0BC0Zu8OMBZnAMUjw3GYs/1VgyGcRDj63q6pmoZhKGHQHWZrtOwQg0cSeDYFZlFZYBEMH03RTNXp9Ia7fvnE3FPP27f9y2BH/ZS8Hkn73g9IujDwOTIcAzVQf9VgCA/jmGi2bsc6ksQVFcIwwpxRMFHxkfgbtq2L+DzgxA7FiZF4jqSPEI4j2SZYPlyrO6dg0xfrvlz3YSLQPUE1I7D3AzJC/SDy4a5A0NRAmH5gedu/dt4ps0rzSb0+o3S8vzga5NlwhVQsooB+AcFgoh6u/jBaf8Pgw4hTlz1cKwzDP/zNU1s2ftFyYJfET8Px2+huH+4KNGkI6WR89SvP/O7e/379jXd4jsnNdZ2+/KqSeekd1ehujLM2lUiCEx9FURBsrFEIj1PlWGz9XWFURmdG1qMvr67auX7XxjVpxvFJpTmn+jOpUVi1df2jP7p544erwqEgTpDL/+u+7/7qb+dccxvopFPlZ7CjEYJhHUWgKDZVOsfQM+6uQOkNX7vuvzeu/WfNri+hcUuNYX3i1UcPIZ2IbHz3xVAg6MotvfsXj7320eaKBSdT+iNfuE/cpUESqWSCJCmCwJCBZ+EIHX4E8iB1IxTGIzosT9GsRV//3i9Wv/KnVx69//2Xn2zav0Ob8c3G0UAY9nU27t/1j2cf27Fj/5KzL77vsT/PWbQMLNVGiM+kyJIk4xjCCxKK9U+kAx1+UFgHyEMsDuIbUgsNHULDCIykvmTO0l/+dfU3f/jQnGVntzY2vPrET39101kv/fL7a1c807H+RaZ1M3gQQNN5TQxCgWc/f/vlP917/e9++G1Bkn//2gffe+BXUwHeMCEDrRY4jmUV0K0VVUWGm0hHCiuQHZTGy9cvNGEBMKmWzlty8Q23fPcnjz34wodnXXWzKzs/wkDh9U8yrV/2652OzAQgbKnZ88d7v9PZXPetB557/B8f/ejXf8ob7k+EjsrL4UPGJGOyJCIYCqoPG4WjWRi+L4wmMd668WvWGc0Vi0876WtXLbn89qxrnyLdY7x3G7/mYX0dF4Q8k/zw70+98PC9Jpvrmtt+MnvRssy8qTwFHdYzQOxpa3Y4LTiigvWRokiAckQa2ngA9hE8U1UcQ/NQV3oN4/ZCzJTRmx3xNobmEeUOVowBIXjPufmff3r+vmsbq/fe/+SKu3/7nM3pPig6/V8hb6e/qxPYIQ2mcPegH08CIkiTbDzQMNnUj1yvK/2lfrW95P7StGRGg7Bm8/sv3ndNNBY/91sP/M8fXnPnTMEPNSfUCARFMwvLLA4nkwimwt4Jyc4Q82CIBpem24WD+o+EcN/mtZ+seGrdq7979YErN7zxx4qzrrv89l8sOP0CMJUdlJjBLxTDEDX9sh4mrUwsNIOWp8eUNoVqB3QdCSEMI1FPfaDtwILzrv/uE6uX33QniON4LQ+oHa/E6HyuDCdFIOCYm9AZdBbH6MwnQO1UDtIBXUdCuODM5dfd+6f/enjl4uXfMljG/uPYQYEbUDuIPOHCoa7gzC0BL0AUsJrR1JOu/P6E9cyAwCFXZ8DUSCaOhBDwEX2/iQa5KUzjbmqa8VBXsGcVLrnw6xane8kVt+bMXgYdh9chV4+ha8NAOC3eHF1TYUiBkZzZ8xp2rzv8/Woa5mnx8oRUOgKExy5IR2Dta94f8XeWLjgLggdqBnLHPObHLlD9TR8BwuMjSKHOejbSrXB0fuVxOYuCKI47UNOH9QgQAueOg9Sy82MEwwoK8uyZU/YzgGPVrHFjPWEHpx7CKexu7Xs2FBYUZBWUDXvGPeG2TrvAFDZ9Ar6ODuEEFPWzTlV345LRVDjABD1GffofQunXP7OZCaECH+I+9D0jvk49hFPltizxJkdW8Zz5tpKlU6Vz4nom1iEPcR/6nri9o5AYC8IZ7U+D/Mcpo8GVZ60425w3f1DFfwqDIzAWhDPQn0boJWzEq6Z6MipOgdGZ+tXM4NCcKKWxIJyBdgzXSxSR37vyEVfZUvUwgA/LzoBbJ4yJ4wDC4WIVaNpJc7IpezZx2GnfcFgfKTwI5kGFIznHLk9SfGwDU8NxnEKY9LWEo5reZAXvKCbU0EEwDypMSE0v87jFjy3WxymEtdXdzc1+19T9nWkvJtN1GzfW0+LAcQrhsrNP+vY9t1hcWdPS6KNSemyH2iguI6PUjbNqOtjE7h246IcP+6fdpsPKhHQe26E2iqvHKYTelpaCC384it//qeqPwNRDOPkJJ+FtIu25OHUMz9X643MCZKYewqmYcLQ5l//gBAje8eHilEM4qUGoqUqgcZu/YStldg2Kz6S0DtI0vsLE7E2Me3weQONWOhUQDjI2qUHoadoBUFRVBSP1g1o6Ka2DNI2vMDF7E+MenwfQuJVOBYTjNjYI6+Fa4sqtzJx9ht6WxSVPxF+Njtm+4drcR5uE6FRA2OfEOO5jYq0zWoGagqWX6Y6YSAH1/3caMzQjN38ohJPoDyOb+feomQQOkwjQUAinx49JuHgCiR6T7j8UwhMoYtPj6mAcBpfGsHhMun8vhBNytpSXRwAAAPNJREFUc4xWjFY9U3ZG82HsusE4DC6NLT3zHL0Q9rp5YsR35iM0ssXjJGK9EPZ62Ytjb27abjNgYtp8H0bxcdKcAQiH+HicdLIhfs0I4QRq/CgQHiedbEYQG2LkBGr8KBAOadYJRZi+YTR9mo8uwP9fIdTGO4wmDsh4NR8dIBOXmj4IJx4baOLujygx7jiPxXhsmzGofSO4Mn0QjhCbEfwY5OvxVBihGcO7OEbjxqgeXucAdQRXph7CMfwcwY8BR0/QXG+zx2jcGNVH2fKph/Do/eyNwlG245iLHX2zJ+v61EM4YY/6kZu+KPSbmLBzJ4DA/wEAAP//QjxjgAAAAAZJREFUAwAMY+M6BXrYMgAAAABJRU5ErkJggg==;" vertex="1" parent="1">
          <mxGeometry x="570" y="520" width="150" height="150" as="geometry" />
        </mxCell>
        <mxCell id="k7D4iroLJhiQljq5lRiS-6" value="" style="shape=image;verticalLabelPosition=bottom;labelBackgroundColor=default;verticalAlign=top;aspect=fixed;imageAspect=0;image=data:image/png,iVBORw0KGgoAAAANSUhEUgAAAJYAAACWCAIAAACzY+a1AAAQAElEQVR4Aex8B4BkRbX2rRs79+SwednEIhlWiSJGFMQsiiiovwpPnu8Znk99mAXlmVFREVREREAkhyWzy8Ium/PkHLunc998q+r/bs/ubJiwMzuzy+qzrbldt+rUqVPnO+fUqepFkc/Mh80MG34oPofqHyXGlAeM4nA4DUdzVlGY+MMn7h7pJSO16VX28Rl75n39k5xnygPG4zu2PONQz9is4/Dfv3k0hAeKeihZDqTen/N064eaebr8pzp+tDxHbu1Tkm00hKNF3cdwtNATUe8b989ZO0bWPhrCidR9jAg9kYj/pH17nWfvtyCM1EoQjrz56z/gxW+Y/N80hk5+kv+blHudZ++3IIzUShCOvAn4HPCC9ymU0tAZwnHqbKY+YgpLO4ZJSxDOqHwlHKfPcVJsDkBtUiOmL9gxx2HmITyaSzzWUDvApEYUMXbrSPd0K5OCcLKTjCPrOM2T5foPRDe2SY3deqhljaM1v9n/2zd8H4QHtu+lGLt1b+9B3+PIOk7zQYMPep3SxAeN/ad4HUdrfrP/t2+N+yA8sH0vxdite3tn7nsUYkdr4plbwuFyGrX0KTLaB+EkBk53sklMMQ7JODOP0zwOk2O0ebSxTm1ZU4Jw9GQzppVDsD5E9zhiTE0V4zA57ObDn31qq50ShIe9mv0GHv7C9mOyt3qItR6iey+XI/R9tGY/ghCODdbRWtgBuIwtygEkR+blaEx8BCF8VcAaG4nRokxWt5OlG3vefbdg4/TPRPOMQjjN9c7EeibLYzSoY4+cLN3w6MkqYLJ0w1wP8Zw6hONNj4mmtl4MmKhMMM9Ew6bSN+NTTFYBk6Wb1GKmDuE0p5+02qY5D6XUdd0JdACCaU4xAfMZ75pAbWNAOAH1lCQbm89MqW1s7nsE5Jw3NzWtW7Omt7vLsSzT0PE33Gfb9tDQ0EB//9BQMjmU6uvrB/Fw17SfE8o0Pe4TqG0MCCegnpIYU+EzsviRyqGmGoe7ruup1NBQIqHJcn1NVWUk6Lk29TxGqW2ZlqHn8/lAIKCqKucCWjh1E4MD+VzO87xDTXlw/yhZx5Hp4HEz8z4y+xgQzswMk+IyIsbI4kcqkxo/QsQ544zqetG2LduE1+VnV5fPn10nENFzPea51HM916WURsJhWZJCwUBZJFwRVMo0SSREkkR8gduIQKhPVEp0hynrRHyn0Dcy+2gIS9JNgdV0SEfEOEwmzDa9Qoq5lsA5ZwzOFY+Eaytis6urxBJvzrkkCqIkE0KYawuuKVhFwcwzPcvMvMA8UZKiQVWV/H+MyahHHduzLc8yDiFQifkhaI5W92gIjyXpxtGC69jMsWkxy2ydEB8itPhOhmDoOZwyDjAo8xi3HMexbdcyXMtknkuoh8jJ6L6YCd9ljkUd09ULnqlT26R4dR3PNgcHBro6O3t7esaRYnTz1K1/6iNGzzoawtE0x1ZLIZvRcxlm65x5nEiuqOiFgmWakFIUqAB/pJ5HASPjnOGVMsqYX5H2/oshkRBVljRFRlEVRZZlgo2RU44nuKBw7ujFaDhYW1MdDAbQblsWmscpIzhM3fqnPmK0DMcahCPqGC2q32IZhm0akWBAQNzkgukxx7ahYklCvGSEI1jalPlMPMaLhjl8rkC7LHBxr76AreNREHgU2BIuEIEQSSQydkQiSAKTCFcVUUWFutGApmcz/X29lMI+hLE+ZKzGybXxyZFNSHWUIZxQFr9zInWYxbxeyJdFI9jDsHabi5Zl2baNccDBtS3PdRilhusmC0amYLgUzieIhKiSqMmSKhIURRQlImLZwNV/CpxwjlnxFDyHMI9w3xSIQCghpuNjrcninJoqahTsfLattWX3zh39fX2GrmPe6RZy2AyggD1jsYo9tWP5izq2nU9zx4yFAgJz4XaUcZG68AxZlhmjnq17tkU8Dy2KSCKaHAkqAVVGnMSrRAhjDG6HUZTBCX1ooT1CBMKoyCmeaKccgZgYHnMFiYuyJKvQCfwYQLb19LV29bR190iyvHjpsrLy8mKxiN6Jyj4lT0R1uH1kZOCxDiE2Mj2b0nMpz3UIkOCUc8Hjgu166aIJLKFi16MO5ZosFhyvYLu67YqEyKLoFyIoRCDEXy8HXgLc1X8hpY/fWvqD54mMonDPk7lAPc92/NOkrCilfqGuujIei8I+ert72lpaeru7Rd+ThzvHefrzjNM1o80zCiGfUdEEAWlkIZ1AhGSMM04c1/M/jHkezeomY4yIItTKGdNk4jCuyjghaOVBNahIqiQqIhGJQLkgEiJIMiXicGFE8lsEgXHuMm4zDgvwZfdDKCXcVQVP457k6LJrBggNEKYKtCoaml9bWVVVKUmSIAjwwq2bN3e2t2N2vL6KZUYhnDm7o66r5zKFbIpRD65GBO66DiqADcqyPEYEIiP9IPiI+JZEiTEucI6ICaAdz3MotSmzXM+l1KIMhwuBeYTRgMhVkRMiYCvVbfQySpnHGHiCs0uZ61HT9fIOtZngMe54zC+Qx7K4hPisqjJGY990gqFQvlDo7u7GwFexzCiEM7QOzpipF1zHZqUPVEbhLwLBw6Xc9WFimqrIJW+QREEFMpSKoghy3bZ12zFs1/EoXiFRaRS1KbNcajhu11A+ZzmG42GUrMggQBFhI5xTxvERuEA4VwTGPNfzwIXS4XOkKIMgGAw5jqcXi7iT6+roYIzV1taCw3Dhw19H93nMQei5jp7PckZRgWYDimhhbxO4KhHTtPBBFxEECX0CIqQQVLAEQogAFBRZDmtqQFVU2Q+wAhElGS7jk0pEwBdGAfpsEWhSYIyRlDFBEGRRxBM1uCcTRZEQVVZUfBRVQ0WWQRAJBlFEQqqrK+vq60LhcE1dHSDfsGHDrp07Xdf/VYSAy1EvvuhHfdJxJ8Q1tFnIc8Yc21ZEokA6zgOKBK0WdBNfqqIgWmqKhLaQKg0TCAIHocAop0hWmcAZFK1pAUVVRYCoKEoJCIH4GsaDMZbKG9gFUVLZgm67tkdlUQSonAuW7VieB0/N6aZuO8CYc4apuWNiilAwCP9UJFJRUYZZQqHQggULKior9WmcMabpu/7ax9Xo/h0HzHPAy/5U06nrhYJjmiWv4QGZQNFQKBhyQTQsR5ElDqhEHwY04vTNEDwJ8SjLFM1krqg7nu0xyjhaQATgBM4lgtRUwCv3P/gWKGPAg4iiZTlIPasq4sCDcg4nFgQiEUEUCbwupAF+KIcBQ4syjzGh9AEL/NCBqiKJ4I+ICv+Ll5VhSHtbK9oPo4DnYYwaGQIpR+oTVg6Y54CXCYdNttN1HNuyVOR6zBGQg7oe1CqJhHHBozSgyi6lRMLWRShFLsOgPujasOxs0ZAIgcZlUVJk2XKpx3Eq9w8DKsYTARubLAIYER9BICghTYlHQobr35QqhAS0gCjKpkcp990Xe6EEMga/JCJB4T6YBAMFXvJySjkXSCaXD4VDqiILMCXbNovFaDQKOxEm8+ETEx2i+6DBk4bwoHEz+orICRdUIAvnEhFs6IjBESVMwrggEoEQ4jFBIoQyCv8DIboIAqgghIP4RdA1LTtnWAPA02UIocj7JXQLgse4TQG3715gglFcwJ2LKwvc8/wLM4/6eQ0RJUL8bMjwGOV+xgRKSSQi2kV/NpH47DgRvb0GFIvGHMfRdYNSVigWTcsEOeMMAw9dfGYTUB2i+6CRvnwHNc34K5+QIyy3kM9zzgChLFBsS0AU+x+URhkXiSCJhCJFlGV4plx6lQg+guNRygTLo1ooFIxG1YAWDYfCAQ2+iNiI3BXDOYIv5zjv+zLgRZQd10U75UJVPCLACLgAFYREWpoRLu5JsgSeeQdYCtClLCC1kfz5BIFxDtkwKhjQstmMhWMG50NDQ6Ik1dTWBWBMjov4D4KjWSD/EZ8OihhvDiy4kM1Sz9NkREkGHTH87KeIZHgMQRzznZIxLkr4H8GOiE1IJAInEhcVTdMUSdINCxxURQmoSjigipwOrwr7GygJwXYoElHSVL9EgwHKqMf8ewBYhu6ygusBM0ngEVUGN4kQTRIUiaPXYwwiwXR82DmnrstcG04N/6uurKiqrAgFA5XV1SIhxUIhmUjIiiKKw5MfvGLfhg5um5n3sec7JO8ZEch1nFw6zYAZXAfXk5xR6u9Aw7NbLpVE0fYoDB8wMM/1qQRBFAjwRDPIoC9ZliPhkKKo0L7vSbiv4QISECicwAVBL4qyInsUXiW6lKuaWl1RHkW+JDBFUTAczDEQKDqUqZIItpRxhYhRVZZFglcslhPRogIqHhcgCaXMdlyJiLAhIJoYSqbT6WwmwzlIMGKM4jMao3kGmnyJD4ONL9CItCOVKTIySjfFmqYS6hLmJxeiuEcesJRlOAZTJElV1FSuaNoug1sJAh4ig5L3TAYAJMnfNTGSiCLoCWfY6vDqMc6gceiVMTwo800ENRQKLgLBBGEFW6CAbVGTpYAiUy5QxkHneJ5D/f2Y+Ev1r2RhTLrtotFhDNEYDCVJhJCFQj4UCFq2/4Mizvt7xDqKX1jp4c5WWps/mAhmNtW89pmm5x5IdTT4LQf8AY4D3odfMuk0whFOz3j1EcAXIQhiYkln4B1SZAWQIEZZdjAUDAU0YThZ4IJLlGGmsiwrikJKH1UWZeaJ1NVkAEkkSSYi2IDvnoLoK5A9LS4XPIDAgSQKfnekwMajHF4YUjGtrxbDdmwPNuRzAU+JCESUXNdxPViQX8A3Eg4TQYhgDw6FuMCxIjROrgyvYHK0E1L5sk5IcIhOc6inb93j3S8/aiS6C8m+jleezbZscYvZ/YZhjfu9lap6seB5rqTIokigWSIwX7miJIgSFAsSdHDGXMZMyiSRKITIkoiKKhJPIIyIwF4L4DCA8USFI6sqfiGyGLGYQIlMQECYRjgpfURJQsHwkMRlAktg1HFsx7Ndz6NMlohIBMa4hRcuiNgUNSWkAUhiOK7peL6YgqBJRJFERVEhnqqqiqygIhASj0YTiYSmqvFYTFFKjX7HIf/GUMshx4xJII7ZOslG1ygkdr6iZ4awpGhQCYfD1fWzzERnavtqzyiMx8Q0DEr9fU4kpWUMm6MoCwLBloM34Aex/D5CgCjIZImIBFmGSAVCKQe6nHPHMmEHAkIr1M+5wCinHr5tl1qMmILsibIkSYQQgXPERiqIVFT9FEjVGPUcB1epjgMWHtVkOYBZiQAUbco8BuwRYCGLn/cWbRcCYCJVFERJ5pwHQhEiQkZBFCURH0IaGhps1w1HIugF5dEsvhyHPV+qZatj6rIsK4oPgCSJnln09JxbzKR3vTQmW8MwXNcdXqciY5TAoWCyRwxCkMEreMG52+M4UfgggA/gDAcUQMGgVSIQQeCcS7KCaIleAOWrkVPUwY1SDx9GKWWgBsKcU4qLg0xqCFMzBjshsXhZUFUcx3U8ho9hWbbnAUW5dJngMm57FLkPOICFQkTdRh4D9oIkSwXTSqXTeyEU4+XlDr5cSQAAEABJREFU1TU1FRUVSGcwJ6bw6abwhxmmQD2aFOoa3TjcUmJdegy/j366uu9qicRQon8wl80ZpiUFwsNkruX/e6Th+vATroPlea5/HQzUhvXO0QoV+qD4VK7rwJkKlusnLwL8gEqEBxVRliXbZaCQ4agCkVW1hBmnjiXLMurgAf+QFVUdjm9AzfNEIgJjRSmFPnSpGlQMJiiGaUqSVBELl8BmRBQBm2G7sgjzgHRwZkGRiCT6rzbjoqJ6RMJAwmg8HieEU9ehjCVTKdM0c/m8KIm9/f07t22DJK5bWiOoJ1X8KSZFOA6ROD5GJdalhz92LLqN6zc3NnV0dPbtamxrbO4wdNPU9XzBhHVDKf6ovX+cc/xGihCKBklgisBFESHRdwG0oBdPFFoyfwS3gIqk0vcqNHKO7U30BEJFGbqUVU2UfG0qJQVDlRgO1cuSJIoiIYKKI6bku68ID8d4NAkCumKxmKYCTo4GhFOkl+AcDwfguB5llu0ihJoOfI9bjgdPRm8sFJBUFWbmMQrrcQVRwqFTFMPhiKQFPMbxe6FpWZTSdCoTDgSz2WxbayvkmSKKkPLwi0gmOXY0Hef5dCqZSOrFIuKQaZhYYDGXY5LKBeJYDlxkhLdj21gYXkWBwZD96Ma46/jWyoW9PigIgEEgRIWikfsxAbeipisYLt+LhSjgw6hAPURVxFUQu7bl2aYECqhcEBjznVUkRBEFlbsKtRVqyZKoRWNKMAQZCGNEIJK/pQkF0wbeoYAmiQRieJRZjmfbuFIXGefwsoxhR1QpEgLwhMGSOKdEBLq+7zKGNEqW5YrKKtuyQ6EQxFYUJTU0hGRbKhkZhD0KpaSUw5pHz+NWxcfAKJpG0ZJlCblHMFqey2TTeWugs3Ngy4vDjC3Lcj1PEYnMKY50aPQ8KkoITnvyN3gYDBztsiQxIsKXUOdwO8aJLMmKv2USv4njIXDGPRdP1CXRl5+IvlPiFUUqfQRCcMKzYS2MCpxrhImeg0ZACxqOXMY/xnGRAEUHHkw9l/gTwBDQL4RlEtEUF8HE9RJZnQskIAku4+hDOHepD6LjOBB09uzZtm1HY9GKinJKKdKZ4xYtMg3D8zzGfGPCkHGKz63UNVIpvU394atg6qP8EaneHqRuhYKVzxUL+UIwFFWj5Q60RkQLwcVjA70DoLMMnXuuyDwOJUL71NepLO85PIDAL1CGKBFFJRrYxLVASFIDoiSrilJSrO9bjOPj0+LP87zkUCqby+m6jrqkaoIoUc/jJa1RxlBA5jJWcGjesGzKuG2Wdm7uUVo0TGzJkCEYCHiuY1g+GGQPfBgnMKDNWXUsKIn+/PhxEV84VKAPYxmlFBMR0tXVDZlsx06lM6iLoogoWsjnCSG2ZSE4gX78ApbDnSOV4dcpP6cO4V6jaVz3kmfYlmHAn+JV1ZKIUCNGKyqDkaggitlMLptOm3qReh4HeNQbFo1Ikq8fUdrzKoqKFpABnqo5TBCIKEqSouHiGuFNJcRfHiDIFQ1CiOm6AFIQwAB0IoLYcHGNomvqjCIGWpZtw0ugY1FW8IS2cwXdExVb0jjxJxUJcV0EBXgJlySRiP4URCAyET3Pwz2Z57oiIYIg4BlS/CGowxdtxw85kaAmSxJnLJ/NAT/P9Ye0d3RAJkVRQqFQe1ubovqSE0IwcIKyV5ETkEyqa+oQlgSjrmtk0guXL41XVhq6OXfBgmi8nDBaXlWz9HVvWP6md6nldbXLT2WUcs+VRH8WLBuvEIoTf+NBhRAiKyoqKIhaHqWiouhFPZfJmLrh0zNOKSvohiJLnkehU8459TyB0bJoOKiiWYI4Iv7AQhAcx83lculUykac5Cygqb5BqCp1bOyXJRIBBuE4Tk/fANBlnpc3bMR/1FVVLepFpJcIG7RkcI5LVQmd3PM8DMnkdXCAAHqxANkgvG3b6ILbVVVVBYPBQDBQW1eLwNDT3a2oqiTLE8fSvVKD67SKr9zDYNC+8SVZcBLJjGeay086saam5sSzz6tasJhEKgMVdeGyynPf/5EFJ56KpYrwTsqo40BfRd3IZrKWaVFKsX4cQjA1dOHYtg+MQIyijmUzz3Ed/0xCFI0BBPwWYVqO5zHOS0awz3zhRoqEVMZvcaFozxNLH8s0c/k88sMCprTtZDqjY39yLI9CCs+y/X3RhOnZNmb3vdbvcKjrQh5KvVzRn70/kx/I+vLYtg2ulNKiboAPOKfTKVXzXW1gcHDOnLnlZWXBUFCCJIIwd97cZCIBPiIhABiVI13Ew5iAc96xdYPjeju27yoWjSUnn1q9aFlk1sKq4463GSOiKMlKIBCQZUlgnouM0fH/zbzredTzPEYz2UwGf9mcazvIIsFNVRVN4iq3FVkMRKKhWBnCoEtkypgkycjg4/EyRVFFgiMQ8bi/Vw2LjdDrcubAIDxq2g7w0FQlFkYQ1mRJFARBkURoFtrP5QuJJPasTFHXg6FQWSzKCHgrAUXJm3YwAOZ+bJBEIoliUS9SyrJ5QGZCVlmRcSCJl5UhAheLOhHFYChSKBSN0jVFMpmsq6t1HQdLRgvo6+rrMuk01koRMIYFPZLPw4EQuwU26yeeXF3M50845zxoQgwEPUrhJahDWqhSYMwp5lzc3QAdLcBkhcuKFo4g3tbV18ejkWgkoipiMZNk6S6zdUPzs3/f/PBfnvvNDS/c/tPWtc+UmHFd103Dj6iccU1RJEUhkgzUKRc8QbSp71KObVu2/4DKOOcwLLhkJBRwSlsXghVhDEkpRnmUQjbHdZEHybIIh1YVJRIOOp7fjq6yaCwWVIlnwtkJEQAYzAKbXH//QCabzSNzs228iiIcjFiWSQiBhMVi0TRMUZJM00REBZCZbK6xoYExBkWB7YwVLGwsXocDoV7IuWp4KJt/xyc/vfR158jVdbig0S3LY1wJBGHymMi1bYqDRCCEumVZg4ODaGecuZ7LqSM7+aiTDBu9ZLCx5ZUX1zz68IbVa5o37dqxZnPPjsbu1obMYB8Gapqml36QwjYjq6qPhygKxD+0IWpyzqDQElQ8ny8iE8EQzAJEEyl4m8E5Zz6o/mYM7wwENBAAAMdxsrlCKKhlC0XTtEKaQhmzHEeVxRTUb/hhFicIx3UkiYTDoXhZWXdvXz6fx0AUrMtx3Xy+AIw557IsI3UTJSmRTFq2XYB7FgpDySQghDCYccYK1j8WL3GsxkO0aYGgpCqGxxYefzyWkS8U41VVuVwOvELBIEG2wnmhWFSDuGwj6Uymq7sLs0N3vDDEBprZULdspHN9vQ3rNt13x73PPv7c1k0t3Y19PTubJMbdgpFv7+hc8ziHWk3TtW1oUJYkJgic4EIHzkMpUtySjNCmguBLCLaiqupqjzHESsMwbdsaSmc6uvtyRVzCuPV1tTXVlbEo5BHAKqBpiOrFoo7QmsoVRIF4lOXyxZ3NrTblnkclRXMom1dXFVZl5DNIYOHHmL80p//QizrCSDgcjsWibmkHxerCkUhraxtAtWHNngewUfepZ/RvtCuKh8E/GI6c864PX/O1/4bpIZIEwiEVFo7rf8+zoL9iEYkEtiMs2zAtIkm1dXWIMEKmj6X7uG1mB+CT2U2r19zxx7t2rNvctGqd0dSmeVwLahW11VU1FfHyau7Ynm0yzw2Fw/BFIBQMhWAckiRKogC9SgIjAk4FEj5oDwVUQWDFQiEY1EzLCAW0qooyLaCahhEIBoE9YAA2QilrpZRxxgu66XqebpiyLMGbVRURJFgo+gd5TZEJ+BPseqJtGqlUWlGUaCyuYkdgDMBoKlJVBodTFH/pJm6mBCE5OFhbU11VVRWJRCAlhGGI4ZhyRguc4SB+hwMhWIQi4Ug8ns1kIGUkHI1Eo2XlZWhnlHqeFw4FA+GwpMAPQ5IoaqJQ7Gwo9ncB1ELBSKcLK++5/6G/3J9r75KLJjSNgdFqIBerrKuunV0XiwSOW7ZMVaR4PF43ezZ0Bl2DxrYdPC2Xmg4FK5EziVNc+sAPGQNM/sFOlhTXo0VdZ56La9ZQKCzLSiaXz2Er0w1wsB3XxpYGRoLvkS58CHxEkYhSNByOR0KhoAYryRf0fD7fO5Bs7+otFvKu5xmmOTQ0ZDtwLw9bvqJqoigieYGJaAGNUopoUSwWGWOIB9icc9ksCErzjHqMdqVRJJNvECdPuj+lZfppt6poVdU1lbU1iqoyzwtGIrGKioqaGqQtshZQQ2GE3IrKSqkwoPd35jL5/kS2s621o6V17RMrmWFVygHZtHG0r168qJBOMeZHsGI261hWOKRgOir4qEARFKgUCvl8IZnC8cDyOCk6bChrpLIFKJeXNAKRNC2QL+Qbm1vyRcN2HNMyJVkiInFsRyR+cjQIDGwbQ6BxmBrcF84niPBC0UOiy7l/uFMVWRRsZCucmYa/oYbDEUq9bCZbWVkVi8c9Sgu60dPbF0daC6EBXjQWCoYikaiiKpBywyvrFi1enOjryaeHBro6kNQw6hUTfcXBXpT8QHe+vyPb25bra8/3dw6X4lAfo3uyKix8SkUsLX9KQ3ziXC47Z94C/FSGgrlTiYTjunxYl36/AO3gW9Y0UeADvcneAZy489hXQhJ/+He/x86G7RSpAkzYzhcdx1l06olVs2c5lkEkJVJREQgGwMKyLOp5YMU5jJtpmooKdR3XcWzbUQMakdX+ZKZoWiiMMssy84UiQkBiaAjBMh6NIewUcrjxEmzHjYYCcHUu8Gg0Qhk8SeKcgyCBu7psNplMgUZDIPZv3QCoEAxoABP0kCQWi5WXl0myjH00EAwqshwsfSKRsCSKXT3dmXS6t6fb0o10aggLb2poGGhteuaeOx+74/f3/PR7z/32+8i3tz/2px2P3bET5Yk7G5+6Z/fKv+x8/M/DZftDf1h3+/df/v31a/9ww67H/9y3fa1VyILPZIqINUyGboQG2sPKK6uq6mbPisRisqJYhlleWQVfISKBxhljUPoeei4wx+jr6s4MJhh1Hrr1D7fe+GvFYxoV1GCQZLKO64ZqqnOJhKoq1EHmEo3EIpXVZRiezhnI62zbMgzddQCu7xCMUddz4V4gcF2HUg/CGIYN23epV0pVAkCuLBbXdf8Y3t3dg52sWDRkRTUsOxIMQLx8LqvKso5hjuOBm2nkTTOVTuFUQD0PT9vxI7ZHWWVZTBA4loZozBjXi0Udm73h76/l5eW6YQ70+7c8pmH09vYEAsFkKlVeUVlWVlYoFEI19RASR5rqWMgs6JnBZD7rDvalC1kjlyrkM3mjgGTN5RxU2Bbw5UOB5eT6OzvXP7P53l/tXnlXYfDQ/+Xb1AIpNr/UUAoqSA0NtbY0O45tFPUKpIKuG4v7p28GHXueL9Tevx5sJg1NzLWPWxjPpVIKFWQqSIKgGCZTVVOSLMect3wxDpFzlh+vqCosvby6nCtBylgoFOICYpoNQ4F/gDkUaNqOZbvwjEgkhCzKAFJ6sbqyXJUVmE4kEoYqUQaKHKkAABAASURBVIEuTMvO4CZTEMAqmyugBSgSLhSLBix3GDxBECBpOp3BWpBJgq2Pn6TgmUwm9Hy6WCwGwyHUc0i5ceovFBjniqLACSFVWXl5NpuTJMkwDCwdU+iGoQZwPxF1TSxOlovF/p2NiY5+I1u0ioZt0Z62nr7OgY7m3ubdXT2dQ53NfR3N/Y7HGGf5vN7R1pvLFlzs0IKQ7W3d8eifdj1xp5n1PRtyjlnEva3Q1XB1pDL8uudJqZdOpVzXUWQpk87kclmsAX2hSBj6Kq+s1AIBBH3qurLs/zaELqzHtu10YhBLdWzXdZnnepqsYMqIpjFK7QAyAhKvqlACgTlLFyM6EUmat2Qe6D01ZhYKyJIEgaiKLOGOW/e9UJREWZZwuWXZ9lAy1dfXh0zVcpxEOltdHockACkcRhoL6YISGMkSo54iEQRFXKMX/fyTaIoIhUE8QRA8j2LBkNM0jHQKP/UN5QpF2Egm7TtlLpdXFJUzrqoqfBFzMcZkyY/AeM3n84LvOUJdXT2WNzQ0BAGy2Wx1dU2yry/R3ycHQggkuYJVdFkmnc2ZbvvAUJvuPb6lYX1LV9ambXnz5U3bt2/Z9czDq1c9+coLK9duXb/rsQeeW7uhZSClc4EwznN9HVsf+F3v1jVYCAQeXaDP4caSLH51pOK/DP9Bvv7evizSr3R6YKB/KDkAuwsCM9vu6exwbCuXSRcLBcc0sUIiQkEMA13XKRbysqpqsZhAiKQoVVX1eCsvK0PuQ6oq0SITEq+pUkSeHUxS6lXWVoUrKh0pOEijwUjEcV1N01RFQUWC5mQJe1J1WbQyFtYUubwshswQ4jq2vWXbzq7BwUg4FA0HQUwZj0VCnFMgTSlFLA0Fg6pIenv7cADHUSefz0nwREFgnLd3dmIzrqqsmF1fA1wJEfE/VAy9mMNx3mOwpEgkGokgqaHwP1GSCvk8rKe6ukoEtUjgwVgvhoiir0+9WMwMJXO9Paaub2lsbkgOZSXpsV0ND6995a9PP9vY3TuYSpuWsaurc0vj7gAR1VBIqqnb0N0/ZNmpfF6ORxs3b9myddeOhs5sOoe1cMa6Nj6P0FpM9mGig4o/5UFNB71CMphkJBQKapppFIuFghYIQlZNDeCcFAlHPMeRJRnTQBRZll3bhuhgohd1EEfrZkerq0KVZZyLiYamhCTp0Ui4rjYQDleZ+uyKMgvalEQpGIrFQvAvoJtwVEmWK6urbdvq7+vDMdKyLIghCPBSXP9z16MhTQF41ZXlXBDmz66bO7uus7vfMIpbdzV29fZ19/bv2N1kmhbsDEiAZtOmzbbtwD/QqBsGHFdV5EI+B5sLqhqQ6B8YWLVmbXN7N7a7jVt37GxqQ1Idrqj1KM3lcrZtw68hRjqTLhmVwijFkhODCVXTCrkcMnGsHdyQtQ729QqCkE+ne5qbUKEeLWTziUwmX4or/X3dc2oqYOMdgwluOS/19z3T3LBq8yuECKG6SqU6UrTyQkBc99zajo6exl1dvd0DnPgwOUZxx6O39+96BTz3L37f/u+j67BxaBTt2DwEQupnzYrF4lhPMBQKwLRVLRKNKZqKvYoQIqmq4zoAAPSBQADq8JjAy2v7HGn1ziTkLlCvNZt1qFsuEURdQZHK6+rqFi2MRkOW5VZUxRM8ogvBUCQM+KHZsrK4pmngNlx0mJDpGDa4+ikAYm9QkUzbnVVXC2/N5YuvWTwfYHMiJdMZ+JBpGtA7IjFlbHdj4+atW8EHKyoWio2NzcmhoY72tsRAf28PfrwVFixciECTyubjsSjwsKnIRBnGCjHAE/t0JpPGoiADAgzYwr9VLFxVgc2Q//++mEAWo6gKVKFpqisIGxp29euFZDbd3tUF104Xctj4bUabBwebEgnDdVOGcerpZ5y+4qyTTl8x+/jjy+pmLTnx1MUnnRpDUlRb09/Zo7teR0tva1O3w0RGGFHktrVP9G5/GasYKYeAEKK3NDdDVgxwqZ+Il2RWw+EIvI25LrAEYLKseKUdGGQAUhB4IZ8Hxp7n7dq5k3MSCQSNRN/FH/8QNAIaXD6a+Wz9aSfMX7Fs2UkLq6qi8cro3IV1udh8L1BWXlkhSaIgErgLnAYeADGoB293wLNkN2pPb3+uUNR1HYafzeeRMwHynv4BRZGXzJ8dUGVFUQVRtGw7GosNJpKCILiOA//XDXMonfYgPZC0nW3btmVzWc91wA1LQxaT8v8DiUwkFJQkCZu3oihNTU2WbXV2dGAuURRhDZwLsiwX9aJtO21tbUCuUChiCihqoL+vtanh2WeffmnrpsFsNmNZXblsZyblMQqC5a856cNXfuLS973/2i9++c9/f+TZDdt/+ce7fn7bn4fLt376m8/fcNOXf3LLTx9+/hdPPH3Keef0dnXkXCM5mOrvScLpXVP3PLdz4zPUscFtuEwEYSGf6+3qDAYDWAyoiUAqK6rC2BWiUZlgR5BgbmopMfFcF++gwRoEgWCpO3dsb9i9GyEI24xuGC51F8ybtWjJrNmVcQEIE7LonBWVi+rr586Bw8UqK2cvXaocd6YULmNEAkigAWayJIMh7AAMBYJTJS8U8oahG6ZRXlGRzxfgMdWVZXNn1Qc01fY8hPr+gYRh2QFVLYvHTMNglBFB0HB5FggwTrO5fE9PdygULuhmNBoBHjA4JRDKFnXPsVra2uOxWDQScl1bkv27BU3T4HPYBcOhUEd7u+u4cD5fNoofJklXZxd+GkQszfpJqa9JWAXzvMTgwPASQIlSUVn11ovf+e0bf/LkSxv/dN9DX/jq179+/Q+v/NQ1y054zbDSQDO64Ibk2ht/8ZbLP1pwrd5csq93sLU9idk5kRCDHFMfGeJPPPJyUKWYx6GY4N5huD0SiQIzSZbRrqoqAoukIJLJpmnCURDXAKRhGIVCIZFIQPWtLS1YfzAYzGUylbX1dUteg0EnzKqEukllRS6XziSznc0dvTljwGRs9ik8VI6fopYsOz4Sibium06nLduyHRuKNg0zk06DJwwIASAejWqyVFNZHtC0hrZuYDartlpTtcbW9k3bdz288pl1GzclhxLxWFkYOQhjRV3v6uwIampZJPiaE5ZXVyA8xxVZFUWyZOnSzo6Ovr5+jmSqPA7J16/fEI6WKVqgrLwCSVAoHKqtrc1kslir49iD/f2CICBsplMp3NegDiPAGmFnruP093Y//fjDqeQgMp3Lrrjyuz/62UPPrF65Zv31P77pHe96D8wO9JMvsiy/7+r/PPWcN7iMgmfTjgbGKIOt2fbT99ySz6SGWU0EIcQCEUREcT0PDge3sE0ToCLgdPf0oJ0TYpmGbdvUdfVCwbYs7Ct9vb1wEep5ZqHQ2dys4fqNUsO0zdpliy5489vPPGH5wrmzj1v4fHP/rPPeVnfaBcsuuEQQJcwliVI2k4EuFEWR8BFF7LeO7QA8OCJQzGUzjHqgtBw3lc0hqgBgqBU/6cki/M3PMHGogHX39A2sXrMG8TyZHEomk5C/q7t38aJFuWyuoBv9iYRuGJgIS8DFdDwej8TK8MMFdvpZc+Z19fTJsjIwMJjJZisrKgYHB5LJBHKifM5PfwoFpC85GC7EGC5goqoqgvzu7VtOPPmUa7/w5T/d++CXrvvWRZe8q372nGGaw3r6K/ro575aPXueWlleVlVFiX8YU/HDVmfThucfHeY5LoSc40e4PJ4Ie36yGPHPf8OvRBQHk0nYFJbBBCGdzmxcu3brpk1PPv30ypUrm5pbLNumnovDQ3V1NaaRkaZa5mAi4arBujPOOuXjnz3lsivqVpz3pR/cGJ+7QFTUrra2oUSCMf7UU09u3rwpmUjms1nETdG3D50QwXEdxgVfTYFAUJVEkaiBoO16lNJ8Lh8MhzBRIjkE92WMxaMxBLRAIEAZ6+nrgyFC7OrqykyhuH7jJkkiOFdwgTS1tOR1s7WtwzQRBHhfAvevmZ7u7nAkBuMB76JeVBQ5lUqpqqaqanl5OfhgORBVVZRAIIg6mGczGcPQGaUrVrz2noef+OYNPzz3gguhIvTOSFG1wKe+/J08d7WAlB4c9JiohCIBWR7sbR/mPwaEvNRDqReLxSilwUjE1IvwMCABk9dUDSpwHCeTyWBJuFGoCQWXLFkSi8fr62qhQcRA+F9dbR3O4K5pXnTJJQsWL563dNlxJ55EiIRto7GlrT+RkirrBMn3vNJsQjAYam5qqqmpicdi6Ux6aMiPEtRz9HzWMnRVkSsiARwkAoovsChwoKsoCnCNRcOGYWaz2arKClVRenv7XM8lhEAGGFkuX9BNU1HUWCRSX1c3mMnPnTU7Ho3EwiFggzNuIBRqae/YvmNHZ1ePIBB4kmUauD7M53NYSE9XFzKSbCYNE0EMEAQB+0ihUOjo6ADAicSgXkRGY7U07lYV+bzXv76ysgo0M17q5i2sqa3PZwu5nKEGAnYuIytqZ+M2z3Uwl68RfO1fSOnFsZ1QOFxRVeUHT8sCeFgt83+ID6TTaSzPxXjDSHS0P/XXv4YNfen8+YvnzHntmaef9doVp5922tx5c2sBSH2drCh1c+bUz5kTK4uLRKiuKF84fy4C4Msvr+np6VmweEn9nLmKqhq6rspyeVk8GMQ8wcrKckgRCIbCsXg6k8llUoy64aAKcUVREkSxmM9LoiiIcjgSnjurDkWUZKh71qxZrseCoVA0GisW/X8mk0zidoqs37yNc5rNpF/auLm7t08LaGeccQaWNjDQJ4ri8ctPkCQpPZRQFcW0rGQyiSw0l80mk4nUEIZjuyBwOFyjDw70Z3NZpBUd7e2GYSAO4Pm6s8+5+trPQeAjV45/zWnAhXPmUaTDJBSOcMp6Wv3/mlMcb9ZAMIjND7jblum6nhb0f3FljHV2dnLuL6lKYE/9/W9f/Oy1Tz366IM3fH/7t781dMtvWS6HC36YqiSrnuNogUA4FpNVVQ1ohIgEUggC7jmWLjru5FNOm79wIZJDcIMMrutomooKVAly17FlScQTloTG2soK2+WprI4tMJ3NDgwmbc9DPIgGVaxJBFvOTMMMhyMiZyqyU8dFFMXAVDptO057Vydie1NTC2BwHMdyvN0NzXCguXPnhkNhjAIM2GXjsWjDrl25XK6hYRd2dwiGhRAEc8tCatbW1jo4OIhjjD+bIKA9EomkU0Of/szVH/nYVRBbOEKfUlQ8+bSzMC8sjNoWtjaBCOFQFGdNzDkuhLBNUGA4YAiGgtR1innYZXbb1q3oyuCHt4HB++/5W29f3/b2jvZt23711NOxy6+oWbQEyhtKpQyjGIxGZU0rFgtY5+DAQCqdQu7ueB6in27b1HMFxnLpQdexJFmCRiCNLEmZVCqfy2G6bDpFHRe4RqKxjO4Yjud4FMYkg5SQgCKrsoglBQIagMFYkRCACtm6OzoQJC3bEiUJ1mBYVnVNLZxy8ZIlyFwwOhaNArihNMKRAhvCxYqiKAAMcQlHTAsjTWtoaAj+sO0FAAAQAElEQVTYghs4wy+bmhrp3t/zItGoJBL8HGGZJlBcsmwZaI5gAXSCwFwH8UxCzibJmCs3VITA8CvUSxACKFQPLK5tu66Lm3g0w8QwIJNKi5KInwI4gyrdzO7GtnZ/R8UULa7bJ0mR+nrowrTMXC4zmBhIZ9K5fA7a3I0fzwYGMtksTBtu1Nff29nW0tKwC8AlBhP93Z25VFIv5Ay9UMxn47HIcfUVNZVldVVx20IUyDHGIUBZeRkCQ9F0ipYLYQgRwQoVOJBp6Ni6li6c5cJ3ZVz1UTiNYRi5XBbCR6NR6nlArrOzKxqNUSZomiaJYmVFJaIl9s5cLt/b01MWizJKQeaVMl6I2tzchC0WHIhA8KyoqMQzFosRxo1i0bLgDcLSpctk2dcpuo5oGert0lQYOvIHHzI9b0RD8dq5CzGp/16SEPUDCicCIhKWhFaogDHW3dPd3t6eSQ0BXUWRM/190CB6YQDZUOi6H/9Ygfo4B6UsKxiYLxZhv5FoNBKLOZSls9mWtrZsNm2aBrKDCy+8QBa5qRfglPCVaLwsVl7BiaQFgzsbW1ta2zt7B3oHU0OpjK4XHccxTYtz/6c7QSCSJOuGWcTPDorK8ZMk/gT/U19bI0nisqVLgsFgLBavr58lipJl2c+vWgVJVBUhQQ+HQx582XURO2ATgLm/v6+qulpRlORQmns2srDSRMiIOYCEHSM/isViul6IRCJ6UUeWtHjpsuRg4g0XvvH8C17vT3zk//qbtkRioTJcNVOo3xYVZd7iEwXi25Y45uyAgXrecJdfp/5VLxFFxB80YocIDCbmR6N/euCBdX19969d+6eVK08644xkIpFOp4hA4AFdXd2DAwPNzS0bN260LAuhuLunp7W1dfuOXZlczrDsZDqbK+ipbCGbyyeG0hs2bdmxbTtMpLmpuTweiYYDsRAiJIMGZVnGvBDDdfzbV4TNYrEowV4QdbNZiXAiB/KGS2Q1FFCRQ9VVlRmmiT27r8+/15ckacGChZAEgcj1vKamZrhvMBSKRqNYI+JhOBzGohAPPErR6Lmu47owAk1V4/G4KIqaFoAA2UwGSIM4n8v19fSEAto55547Z+48jJ2BAj8Yn0v37i3pvq5wPBSMRkGlW66ezVXOmos6ytgQYhWwRHSjuI6TBTKIooRgAXU1dZ7jqnW14bPPWXbmmSCYNW/eHCQmsVhVrX+oaGxqSqUzbun/4czXu+siHCERWLRo0by5c0Ph0M5du599/nmc2Hbubh5Iprr7BprbO9OZLGwKypJkrWsw25fItHT5PzSGwjiPilCfafgXCHjmcjhWW8yjmDqTKzAiI+HCRGlE7XyeMWpa3hlnnoHz/MIFCwAAQCqLxwOBgEhIoZAPhYIANZVOex6Nl5XhBhXirX7xRQwEQ0lBrqoqijxn7lxFVTs72nSkyqo6OJAQZe2F51ehcc1LL330qqtu/OnPysrLwRajRsqEQIxQjVUhYzUKAhhyztq3vFg1q05R5Vw+q1tWd09fqpBddtb5w2PGhlAiIrMdTlmirz+fy0my4usiXuaYllL6BKtrMtVVDQ0NyWRyYGCgo6N986YNLa3NvaDPF5KJZDab7e8fdF0XHpNOpRB/cI5UNG3Tpi3ZXKGpuXX9hq0DgwnbRo4C/fNYJGyadk9f/+BgIpvNZ/I6Y5Cf1NbWSbKMAGDb/t5cNAzc5gWCQcT5aCTE/EsfM5PL6Ybe3dnlUAaMLdtWJOQpIRxaIuEwIJQVBdcu8DmRiKT0CYVCDvbsbLZYKOD+7MqPXoGzIKRVFDWiabFolDAeCgbnL1g01NuH2x8HdpzJMMYWLV5yz31/x3NYfQc+hXGAOIhqCq9guPOFh3KDHVzwDF13TGPHrta29oGLrro6FI35CAvC2BC6hsE9D1ufj58kY1M87rjjamprEwP90Bq2Ny0Uyvm/1zQ+/+yzKI240c5md2zfvnr1CwP9fTg8IYpms5muri6kdkOpNK7zcRw2dMODe3p04cLjYP79A/1trS2Uwp8IUgxV03ClCRfBEinAsOyysnLQ+7mTbXPGgEGhUAA9YZ4FCalXHg04tlMoGgirgYCWzmSxLdqO7TnWkqXL5syZg7CBlRuGYep6YnAQFyumbnR0dOCaEOguX7bsio9ckRsY2LhmTWdH54YNG3dt2pzs6WOGmWxtTbW2yoz2d3b+/a67mrduPmHZ0p/ddNMl73wnxBsuMLHhypF7Jjub4IJMEFEwi27zzet3LjzhtHPf/m68DpvMwRB6jlNMpfDEmlVZqqxBgiDphUJvR0drw25RIGWVFWogYNn2nHlzTzzxxPnz5qFgz7Btp7e3F3zTmXRzS3NrW1t7Wxtcat0r63EO6e7uRooCsFtbW6HKVS+88OTKlYV8fs2aNU8/9RQSinQ219DY6Dgu5xxwxmKR2rqaYDBgmiZaAC3sBv6DTBJTCCXZOaPwKvgmZWxgcNBzncqyKDKmlc88Z7v00ksv/eAHP7Bk0XFmIW/oRVyPzV+44JJL3/nu97z7yquu+q+vfPVHP/v5pe9697o1qwcH+wd6e14zq/5drz9/YX1dlabOKS+vKYsvmDVLMc0FlRUnVleZhnnxJZdUVlYK+33IfvXJV/mkSQfaGzc+cZfn0dRgolC0PTG84aXNciD4gc98dn8e4v4vUFY2kbBh4JznshnHMBQkf7KMDcA0dFM3wtFIvKwcSQEoEXagU10voiApf+TRR+Bwff39eDLGED87urqBSi6Xk2V5KJkEctlcDvCgBc6EHGfnrl3JZFLX9S2bN7e1AdyWrq7Oda+s3bhpA6SyLWswMdg7MOBRqheLiOSIpbCVcChU2iMEzhgnpK21DfcvRBSz+WJ7Z/eOnbtAeeJJJ51yyskLFh733g988Ls/uPG3t/zuO9/73ne++72PXXnVu979nje+8Y0A47vXffWjH3jvC089vXzu/Lccv7yc0jJRrEOItqxcd5eRSnU1NxegjVx20DA9z4PAkGr6ZTLAQ73N61et/P0PB7o6suksJl21euMjDz/b3zd02vlvWHj8crSMlAMgzCWTvplzDuk5ZdgYHF3fcv/9PRs3WokksW2kihgJJc6eM8dDru26mWwGyt++Yzt+vuACqaioqK2ptWynf2DQXzPk5bypsRH7pW3jRzgpiAicz3GBI11MDCaQDmzGLrph/WOPPqqqKmIvvE1WlPUbN+LS/OWXXgbwTc3NMJNB+JmH6GDjAAeQIEbRdDLZfK5QjMciIQ37bACmZhjGBRe84ZKL3wGCCcoD99z9zOOPX3LhBZ953zsXRJAxkVn1dScsPq6yLD48inChMhar01QHp0BKodPZM5V8Dk8w/pN67obH7tq55glsHJSy1vb+HQ1d6VTGs+yPfO4LX/3pLw8aegCEUCIOyR27dhWHhhjn8LZUT3c+nYpWVm5fvWrWouOQ1A7vIpxSECNPyaT8+9KgFujq6kRLe1vH1q3b+vsHHNtODw11d3T29/XBz3K5HLwMsXT7tm35XN62bOx58OOh5BAcCwMh1sYNGxKJZHd3D+TGazQaK6+sCAaDjuPAuS3bNm0LfEyjWBYNEc5My+ro7rVdB68BTYXAzz+/esVrX/fWiy6KxfcgAT6jC2S79Rc3ffnqT5x2/FJBlEBQWV0ZjscgT143bc8LB7HQSDwUEjyvvhKRVbnso1fUz54NyukXPiGLgfamR2+5ccuqJ1MDfWogNDiY2bETR61+4PTxL/735Z/7/OjR6NrT2Ll1a1djI/LL6rlzJU2bs2SJJktwMa0svm316vLamgd//ZuGV15JdHR07cLFijQ8klLa2t7xyob1gkDa29pzefws3tPZ3p4aGoLbCQh5nEP7+UIB/gcdVdfUIF8PBAL1s+qv+NjHPnLFFR/92Mfe/Ja3ILIZhjHQ14OTGUAFtOlUCi1w9Xnz/LOXpqmyXLoH4VxR5B0NjU3NLYx6FfEo8tg//uWel1/ZcMZrX/uu97x36dJlmHeCkh1KvuONF0SDweYdu9Zt2qaWxevm1Bdta9ByXsYP9/PmYgfN4gQVUGLl5W16Hrv91f8xhu4mmGKCLjJ+X9P6Fx797Q3JrhaxRLR27Y41qzdz162pq33/Jz/z7o//vzGHDgMh5BCn2tpEyTfJ/p4eJRhMdnUmOzv72tpevP/vfS2tx516ejGX3fTM0zgjdnV0vPLMM03NTTt3bGtuakTQg9IBVlNTU8Pu3bZtn7lixWevvfbOu+566plngmH8GGQgEGHbKxSLOIds27YNEe+UU0+9/oYbvn/jjd/45rf+8MfbV7245te//vWb3vQmdOE8pygKLkEApyiKjCFlFUKAXVXBB3eb69ZvLBR1rMd2rM6O9meeX21Y9nnnn/+Oiy9+3VlnoR1lPGPPDSWf/uOtUrHYtH13fyqzrbmlorrScdxnNmzZsGv3CUsWve3cFQqlA6n03NmzalRtxZkrbrvnPgQD8JyojDffRGNG+nhv45anbvvBjlWPDzeZprVxU1N7czuOT2UV0Q9fc+2H/m3cX0L2QFjMZnVsRDhJtbRw2549f56eSEQqK+eefMqc45cHY5Fn/nzH/GXLlp65YueGDdtamm/+/W2PP/rIxvUb1r7yCrKeLZu3NLe0wZl+d9ttOxsa7rv//i9/5SvQ6b1/vcs1TVxzYIsdLjhsRSKRObNn/9eX/3tY3JHnBRe+8Rvf/u6nP/X/Fixc8MY3Xrhp00ZYA7wcvlhVUc4YkyQxFNAUwhLJJPfsttaWtWvX2o5TWzfr8ss/guuu004/Q9j7Kdnx3pf9vp/8w62FdBqm0J9KLzv5pP/5j6tnVVe1JVKO42AvvOajH8oNpP/47AtvOf2kSECjVVXXfvU6VfV/QtnLYxysxptv77AxvyFG184NK2+5/qX7btVT/dGIxhnftqlx1dPrC5lCeUU8Fg995hvXv+Fd7x9z+HDjHgjhcx0bN7S9uCrf0fHQz3724I3/2/zII13wl5dfrl+6zPPoqRdeeMrrL5ADWmxWPeJkOp9ft+6VzVu3OrYbCAY+/8Uvbtqy5ee/+MVb3/Y2TdPAGhr/zS9/8be77oqHQwAMjSh1dXXwsOOXLv3Wt7+9YMECkI0up552uuO4ff39OBUAbCzSo7SqLFYRC2PPi2pi/+CgJEmDAwOGoUcjkeMWL/3Qhy+/9N3vmb9gwWhuB7UM9fak+vs6s/kH1q5/atOWmso4jvCUek2t7aeffNKlb3tTqqFp9Zatb3392csXH4ff6S/98lci2FYPQO2wsNpPjpFq5471j9/8zXUP/jE/NIBGj0svrX5l2/bmXKEYLosoAenks8/+xu/uPOdtl6B3grIHwgDOwMkhqbuXtbcL5WViMOAoylBXF9qp49QsXFg+e84zD9zftmvXM88/n8pmcRQzLWvZ8cd/9KorVz719FUf/wQO5iPTpFJDH3zXpb/9pZ87lZeVxSOR884555STTsIF21ve77fUFQAAEABJREFU+tZ7/v73s845Z4T4oAoUivv04UbX9ZAZaYoCP+bU6+nrX7Np26at215+ea2qBWJlZW9+60VXfeL/nff614dCOGkMD5roGSkrv+wr1514/gUnnHzKf37mk1ZRb9i8dcvuZmwE55+9YseW7Tff/8iWltazTztp1gknLXvT2yTF/3dspVPoRGwn34frlfbt61fd/dtVd/ywcdX9qkSD0TiGO5Rs2t7e2dmfw70xE0jdnJ899OyXf/67hctfg979ygHWNNy+B8IlK14r1NUOKPIjXR27+vvaenu37dzZOzA40NHZ09Kad92f/+ynA/n8xtZWdHX19AK/U0477Wtf//p//Ofnce4GrxHj7O7ouPbyy5Pt7TFFqVBVyTRV01w6dw62vSefffa7N9yAH+1AP2ahlD658slsJoNexjhjbP78BRXl5Vow0DmYemXztubWdlULHr98OS5fPvGpaz744Y/gYgzEkyywyPKa2suv+viPbr45pCiSqgTCkddecOG3brqpvLqaVNeueMc7fnHTT0+75H0LVpxTMW/hJNlOTMY5yw12tW98duODt7x8988aVj/sZHvsYrarq7+hoWPHtt1PP7v+t7+7t727m0Xjg0w848I3/+rP98bKK8ZiO6LmfZ17IIS5vfdHP46dddbik09+zamnteXzO1OpV5qbtvR0v9zWeucDD/Qlk8+uW7etqamyuvo/v/D5v959z+//ePsJJ+yzkWHzWL/mxc9++EPJ/n5cqio4+SPJ4fyUs8/+6NXXIF3cN+2oGucch4r777tvoL+flq6wJUmsralRZGkgObR5Z2Mmm8OV2Dmve+0HP3jZ1Z/99098+upFixePYjPZBlGUVrz9nWde9M6PfOM7F3/0Y5U1tadfdOmnv/hfX7nuuuWvOzdUNqK+4WVNlu2BdDw30Nm05pEX77hx00O3dmx6Pp/oQU6eHMo99OjqO+989MUXNz/1zNrHnnixtb33tLPOPOXCt374s1946Lm13/rBT4PBSQWV4en2QIgXWVGuuvbfr//Vr6+/+dd3Pv7EDbfeeunHPrbiwjee/da3nXHuuZd/+tP/+5Of/P3+BxA2L3nnpcctWoQhwwXnv19+/4YvfuLj/3nlx756zTWGrmPdjn/zKWiSpEpSJBScPXfPLyPDQw56Oo7z/HPP7diyJZtM5rJZz3Ut3RAEgiserBmWAICxlZ5xxpnvff8Hz7/gDXX1s4RpfyrqZ9fOPw62OyGnMax+ND3nzCzkMoO9vc3bt696tPGlJ7Y89od199606eHbene94tkmFNI9kLn/oVXf/vavfnfLXZs37Wrt6EPhkvb+T3z6x3fe/b+33/OVb93wtovftf9+NHqiMVv2Qbh/N7R2wkknX/mZq7/87W9/4Utf+sWvbr76mn87+9xzKyrKDb2o4Bolkx6hf/Avdz778MPN27bt3LIlqChLZ83GhaQgSqoo1YcjFx+/fMmihfGyshF6VPqbGp/84++fuuN2lEdu+c2vvvCfd//wh1uefLJ544Z8d5eIU3wuK3PueR7OgrFwaPFxCy/70IcuevvbcfuD4TNdoOEps/Rss2Pz8xse/8vjt1z/zO0/Xv/QbVsfva3p+bsHdq7p2/li884tL728ft225rsfXf2T3z/0nZ/f9ed7Vm7evGt4mrLKyrd/8EM/vOOuBzZu/9y3v3fKWedqU3G7YSYjz7EhHOnev6Komms7qqpFotHa+n1+sOnFNaefeWZVXT32reMqqxLZTDgQeOsZp+OWHMONirL3XPkJVEZKpq/v3m99fWDd+ubnnt+6anV7YyOR5XOOX3ZieXl9KFQcHNT7+6pDoXw61dHWChevra8/57zzJUka4TDTlQlc7QB0HVPvbdq29dkHnv7jjx746Ve2Pvew3t+scj3R054Z6F7/8ua/3/v0gw+88Ju7n/zBLX//88Mv3PvEixt2tgwOpXBvUDl33sITT/p///WV2x5/+uGtu7/2k5vOuvBNojQDi5oChDjYGaaOeLu/BletXNnZ3rZj2zbqOpGKil7LylsWkChY1tmnnfa6N73x49d9IxSJ7D+kfe1LKU6G9CLL5+ZUVi5StNkCqQ9o8yrKTp0798JFi14jSstsezEhgWDwQx+5/NzzX3/QpPtzm/n6AagBXZ7u69jxwiNP3vaDv/3vFx+8+QeP/un3zzy88sVVmx954Pknnt36+78++9CjL//mV/du3tJmelJfItfS6f+jfQgmStLyk05+z4c/+o0f/Pint97+pyeeufI/vrD0pJPRNYNlChBCoMXLDrgjhxx/u/2Pp599tqHrSPYGEoM2ERYvXhxS1WShIOvFq772P1X19SAbKTvu+evQurWZQvEkWT6psuqcykokwLNrqk997WuXLFtWQQTNspRAAPHzpNNPv+HG/52/YGbSwhEBDl0BaiWioZ629Y/9Bd724E3ffuDmXz5118NbXm7Ysn53a3P31tbOzlS2PZ0dGEzWVlQHBH7G2SsuvOTiN1/24Y9+6b9u+fM9KLf/7aGXtjff8fdHv/qdGy593wfrZs0ucS09DrCSUss0HuI0xvpDb/rLXZ/7+jdmL1x4zhvf+PZLLvnQVR83HKdu8eKf/+mOi66+RtE0n6j0xxyn4ZZbzC3bQuUVbzv/vEB5uRcvK1D6wYsuKqur/f3df73lr3dtb2pp7Op8fsO6hkJ+0UVvL4072o9idmjHqkcfvfmb2OE2PPVYsndwx7oGQ3eZKKSLOUaE+kWLz3nzRR++5t//8tTqPzy1+if3PfzHl7d87877P/XNGz70mWvf85Erz3jd2SgnnnKaMnysHL2CvVYyume4hQ9/Te45TQh9c6qorv7OTb9ANnvlv332Ix//+OKTT646+eRoZeVrXn/B/jI0PXD/QMNu3TLbu3pmlVeotl1QpN88/DBuCVpb219/2eXXP7by/C9+cfn73v++L3zpUz/6iaSq+w+fwbov9Ch2nmO3bnrx2T/99NFffXPn6sd6Wtsev2/VhrUNO1r6I4sXhOrqXn/ZFZ//yc2/WPni9/5073U/uumDV32qZr+EYBS/6TTwQ0F8APNpQrhnruq6uhGu133v+vde9qGR15EKK4v3h4Jb8rnFAc3p6FBqahbU1JbNnuXht8OB/kh5GX62nbd8+Rsu+9C5736PKM3APj8y9UGVPULvbc0O9mx4AgHzy+seuXPn2rUtuzq3t/TsauiPzJutx0MrLn7H1d/8wXW33vmuT17zmteeHQz7/9xt79Bpf49pTcJBAh5iFvEQ/TPXfcJbL3rvdd+oiESleFRbND9+6ik9oigUCrt27tBCwRPOPW/mpposp2yi9/m//mLlH37QtnV9oi/ZuLW9rzupMzlv8R67+M5PXXPjb/54xaf+o37O/MlynCrd1MAam/vRgxDza4HAx37289d+8zunfvLqRZe+++LPXnvRpz9TdeJJH/jO9dJ42waGHVzGNt2DqcZ994dnBrvXP/6Xlb///mBHY3fLYNO2jrbOJH4jrDlzxTkfuOw7N//hvqfX4qA9f8Fxo9n440e3vnoth4LwSMqLyHnue9577uVXhMvLp6KBaZluT+NWILfytu+3bd+U08WGXT2dfQPK7Dmnv+UdV/z7l/79a9+75L0fLiuvnECeaU0/Ad/D7ToUhMeavIe7Toyz9MKLf/vti/fdkkuldu9sf/mFl9t2N9TOXXjZF772+e/+6PLPfn7FBW86qgdQyDQT5VAQzsQcIzyOpEuPTDJGxbGMXWsee/6vv+xqadq1o/Wl51/mRFl68pn/dsPPr77+p+e9+e2HcTM5xjSvUlMJwqOl2lfDpXnjuqdW3vqdpvXPvfDE06+sXpvPFU86+/X//es7/u37P5+39OCbilcJhWlNW4Jwyqo9WphPa2mC59prH/z92kfu3rmp6cVn15mGFY7Gr/jSNz553fdRmR7vV230fqrfI0MJwj31yX+Ng/lo9pNnOdOU+VT/C3f9/OXHH9+4ZutA/2A4Xv7uT33uG3+478wL3zbTUx1VfqNVPwLhTKh/NPuR1c0E+xFmE1c8x97+9N0P/ur7T9z9SE9XIlhR8f5rvwjw3vDuy7RgcOKx/4i9IxBOoP5DrWsy8EyD/aGmP6C/e8fLz9/+/Ufu+PPWdVuKhrFkxeuuu/Wu8y5+ryTLB9Ad0y+TUei+BYxAuK9pyrWjBc/EgnmO1frS/U/feevK+5/JZnSHeVd+9VtXf/uH0X3/imJiBsdO79QUOhMQHgNrz/S3r7nnpsf+et/6FzfphWKgLP6139551lsP8c/3jgHBpyzCaA/9Z4BwqKvpxXt+s2Pj9l27GrkiLTz1NOBXN0P//myvjkerbm/P0f0e7aGTgvCIiD9DTJvWPXX79V+749d3r1u/bfbyEz/4uf/60k23TeefooyDyGjVjUN41JsnBeEREX/aTF3b2v7CQ7f/7Jcb1myRyiJyNHzF5/77wndfRsi0We+DYYYMbR/Dma9NCsKZn3baHIvpwdV/+cnN1//QtlnNkuPOetvbv/ubPy9Ycvy0GR/EYAat4SDOM/Y6MYQzNs3MMqKeu/GxPz147+NaWLMFeuOdD/zHt384e/4YPwzN7LzHJrd/AAgPimWeY73w15tvuelONRzsy2W+/ONfBCb3H1QcmwBMX6p/AAj3j2WuZaz7200/++7P5i2e1ZfN/c///mruwkXT18L4HA6yn/EJX72eqUE40wuaGj/XdX5+2w13PbZqwemn1L/mjJ/f+dApZ+75D0KPmAL3t58ZmWRqS57MlFODcKYXNDV+j/zt1tbdu5LJofd94lOf+5/vVtXUTmaFM0kzA/qf2pInI/zUIJwMxyNEk+huzzbunq+WnXH2+Re85eIjNMsh2M6o/kfsYaRyiNnH6f7HgHCot/PpO3+N284PfPyzX/7WD8dZyz9Y84g9jFQObwGHgnCaFnJ4Qh04yshnn7j9F4mi9d5rv77opDMO7JzO2zGwtkOJPxkRDwXhNC3kUCIest8yjd/98BsmE899+3vFGf7B6NVe2yEXL0zqHwWPhnAywAv7f45oPRAMvetj13zyaz9Yce4bjuhEJebHytqnJMdoCF892xxH8AVLloviaDlLOp+Zx8jE+9Y+0jQzM0yRyz45JjHwiKpmEvPvTzIlwfcfON36qzbxdAUvjT+WICwJdIw8jjaq0/D6f0F4bNjMNEzmXxAeAOE0nOEAPkfz5V8QHqDtaTjDXj5H2ApG2I9U/gXhXtXP1PcMWMFEooywH6n8C8KJ9HXE+0ZcaRozHS0IpyHiP/PQkitNE8d/QfjqW0gJx8MX458Mwmka9OHr8VUceSxBOAP6n6ZBv4pAHP7UxxKE/xf1f/jIjYw8liAcEepflalo4P8QhDMQp6ei2aNG+38Iwn/WOP1/CMKj5hZTnWia4WGmINwnxr7aVJciHIMDjvBqSuynGR4mDWFpsvF1vE+MkdohRozP64hkRygAAABLSURBVMCeGWJzINNJv42sZtIjpkQ4E+wnDeHUJ5v6iDFXP0NsxuQ9Q41Hzsomw3nSEM7Qav8p2Rw5K5sM52MXwskY4DFrEEdT+P8PAAD///zm+uIAAAAGSURBVAMAR4yoG7Q1FgMAAAAASUVORK5CYII=;" vertex="1" parent="1">
          <mxGeometry x="740" y="650" width="150" height="150" as="geometry" />
        </mxCell>
        <mxCell id="k7D4iroLJhiQljq5lRiS-8" value="" style="shape=image;verticalLabelPosition=bottom;labelBackgroundColor=default;verticalAlign=top;aspect=fixed;imageAspect=0;image=data:image/png,iVBORw0KGgoAAAANSUhEUgAAAFAAAACWCAIAAADGwphTAAAQAElEQVR4Aex7B3gUVRf2zGzvvWfTeyMVCb0jgooICgqKqOinKDbUD/3svSF2xF4REAUEFAgllEAS0tsmu9nsZlu29z67/6SRbBoJRH//5/n3uXPLuee857z33ml3Eijc9wv1Vf6N5cQFBwF9PxAI91Unqpw4QHCiQgL6CQPAQNQJiXUgIPAv+Q0kPDCkfybWocM6VDIwqgmoj0R4OOiJCqYfZ+iwDpUMF8lVyMZDeKKCuXqc/iEbN/XxEB43+NUYjMpp8JCNqhwZRR/hcZhEAlxtawTH4cGcRvXTpTwC0GC7PsJdJoP7/pH2CI5HEI8S0hgt+giPgvSPdo1xnq48pisi/DdG1TVPfyM8EPHgMXDYIp1GtiKeULqMBnV3icZwjGgF9hgP3z+8tMdiLPlIM9zrtBcistUr7C8u092vGFG7nNXw/cNLI4BHbUQQHtfojUt51BgGdQ4FviS5VBlkMo5mBOFxjd64lHsjGlPAQ4EvSS5VevFGKkbxE0F4JPsJk4814Kt1OIqff5bw1RK5evsRr9KXoEdZHZd0/l+qXHaGR1kd4+b5bxi8yxIexGqUmEfp6gVBBu/ySr26f1dxWcKDIkRiHimUUbr6TMJDnln6ev6x8rKEx0DjcsGGLylMANglrL5KP3qfZNTysoRHtR5b599Bs9/zONGvivA4B7c3yG6r7qxXMP7ikvWlypgxrorwOAe3KyiX2xoOwR6fKxwOdbWv7Ljk+FJlzDhXRXjMXvoVzTZ1h65Boq/UWOT90n+w9g8R9vk94XDX+tOaWpvkpQGX22DpCIXhQUyDwYDOpLa5rIPkE9gckXB9U+XOP35sbK4+c/YI4s9iMSB5V+oKu6sc5wGW1ZcE4YDX62YxopRaaadX6w16BoE43badx77+9MCHg+QjfRTpicXutA3WH7k9IuGEuNQPf/jwxW1b/ijed+jInh93f/HTnq871PI/j/6KjEJldenImMP04LD4RnnNqerdnqCrpLbY6NDZfFYcmjBQFQ6FDlYf1znNB6uONXU0Dewa9vZd31JdXnP2pXc3HT/7p0zZGqE/cmNEwgQ88f5VD1TLJE0drT/t+e77vd98u/Pzp59/8PCx3zY+ff+O7z/cu+/bhuYarU41MnhEDwYfblZVNClr0CiCy+tmoNkd5maVtT9QGPYX1xyPYoli2aLfzu8PwsEDZX+8+fNL3/z6pkonu4RldWkCQd93P289fv7YC1ufbGqTbt/1OY/F1+iUFVWnLqmNVBmRMGKwYtGK9SvvdkI+TAKVM0UMCjDWoFOhUYui2eX1lbsP/Pz+9te+/unD17ducXtcfr8PMRklpcXktmtVNo/T5NDgQLzNrlZYWwlYco9Jef3J6pYL16XkBIL+SVFJpxvO3PPBPXWt5YXxk6g0tsVp6lFDco2psbz6SHN7S3n1WQab26pSrl669vFX72mS1RfkzkIURk8jEna57efLjzr9Bi6J4fR6AmEYHcLaYD8qjUSO58ZPS2+QSvVmfWu7TNkh/3TH6y0tNR6vexRnmfGTYSudiKPgMZBU2WhBOQg4ssNr6TFBg8DxqmI6idlp0dVp5RaHSUQiokOeVmXNNRkz0uPyELUwELa7Ou02158lRxsUEjaXFwDCODxBrmjasPrRedOuQ3SGSz1nem/PiIQBKGShmBJT42BmgIkjkIJESAhyWGy7zaFoV/lwFjyfSEtikXKpHkywtObCd7989srWZw2mzl7gIcUZ1Z8Li5a1tqhhFOTHuGPx8V6PHYsiIhdwGA4CEAoh2aRqNbtcdquNRWYS8dS8+Lzrpq9GulweO4LXLK8ymtROvbdd3UGh0qgUKoSBpuVMvnf1Q9lpecWlf3z/26fDDXrEzTqCcEtrdZO0ds8f3yPoJDx9ee76O+c9/NK610IeyKg0mlodbVqFx+XF0lACTIwgh4sRYiXVSife5wkE65pq3Tb9olXTT5UWI+ZD01n1cXwc4LWgAQCKF2e0uCWdHoPa1CZXNf91Zvfu03tMbpfWqndZzWQSYUpCZllbVb1G6nSbOUwRlcysa7nw66Hvz5adtzhteCKRTMOisDCDShKLhL8d/Xbf0R/YdH52amFre1N4lEcaxPelyFrkTb+d+L287nRl85n1z6wuqT6BdNmdltSoSR89s+PFja/kZqZmJqWIqEKrVq/X6cMKtORIK4mMJ7kJUdeI6LkiGIZBENjy2uNbP3kdsUWSzWfa1bj9p4aPzqmPIddnf9D9zEMvWfVOTUjXopc4HdYq2YVOo0pv6aSRmQ2qZrPdYvPbNWaV3ma4Pm/B/Ow5TJpAKq/5fv9r+4p/PF9Z3dBaUyuvFwpYTDpNa5ZOz5mycvEdD655ZsXi9ZPSCpCUnZoPghGziIQxMPX2Gc2dh0t+bVW1N7ZJ2q0mXzj4ya9bj5YdPHBq9+ma4xAE5mUVfPTEN3cuXTPvmhnTcmZHcUQiMYvCIOhlWiR6vydAoVJxydSE6HiH0779xx3y9q7Lry/ozuFek0xPP9L2WwojvcOmjImOpWIEsAOLC1CsRu+s5MVNikaZoaNKXoeE1WkxCOjMa7NmzkzKp2OxOByxqqakrO5Uc6uuQ2Xl8+gwxgNhAkHIx+Kwttz13u2LH+RzohDD0VLEKdy9xePzeUrKTmhMnR7Yq4Z0eD4GRQM0Fu37u9/D4rDb9289eP6nsw1HjHbdwinLNix77NUH3v1g847XNn5w/dzraWxITBGFvIBVb3KHAoRk3MwVM8lEYlll6cmzB0/WHvxTvvd36c8JtGSP3zNNNLtcdYzNjzJ2miEbOpEeDQPBZp3U5LHHMDkkPLEgNSdZnJQenRYTnXHTggdcHn+NpCnkBzU6HQqC8rKykZM2hA2npGRuvOl5MTdhFJ79NMEIra4ZxuEIyXFJGCIcBlzWdoffH6TEkDPzs0Qpgu2Hv8ESScfKj1arzn/452vbi7fKlE0tbVXKjiYGlfXAys0fPfUdlQS6HHZUADLrDHAQ9DJcqXOT66W17VIpN8ibyZ+/NH6Fw2+VWlv3S3f5ggEIHQr4wgwyA4vGqHXNBSn5CSJxGILRKKBa22D1WIubS0JBn6azfdtXrzS0SaRqKY6IcYfMMoMMRyXMKrp27ZyHcBh8BI8hjUia/d1dhFvbJdu+fQ9w4zlUAZGBhBNSyXTaDo3Br2WkoGFSgM6lO0z+ToOpvu3i539stcPuFlXvk1CCOO2tR76aljPNYNd57D4UgPM2u4VMliNg1nssGpNR26qy201oCAeBKCKaZPR2hoOgwWRqMyjOSc5xGDEBTJiMJ7phWMyLSuIIc+JzlhUs1Vjafvr1K48X8AfcfI4gOTFBIOJCLNQt8++en7kMuIpfF+Gk2JSH120OBv0WvTnsBDAeVMjug4BwuAMXz48RxDCJXGIA48Ji0aAbq1DpauorTzaerGut7PGLxeAeXf3s7YvXBwJevcZIZDMVCmWnVx3Gesw+e11DExMSpNDSEhmpNp+5UDDDEzalJKYGvSEWlYfH4JT6dgAI40BMTkw6nymEw35/AGi80FjWWJcYk8igs9ywQ2mQotioR697OVNc0OP0ivMuwv6AT6WTk+kMkIh2elwSaTMBJJpUVhAXaKtV2xQuU6eVxKPgmRgiG4vcn0uaS2wW50e/bNv+0/uIY4er6yZ51/UP3Hvzg2QCXinr8GPCojixE22hEHD1iuaGmlaUH03GkBx+x+mWYjKJ7gv6LSar025FVoqQxnbCXiFHKOZHTUmfnkDN2nt4n8Pta9e2E6gok1fpw3hFSdFP3fCWkBGNuBsphYGw22vVGlrNNp3H50QGcVjNXsIp8RnPbnj502e+fPnBN199+J1FU5dMy5opJArxKKLH6TcajO3VervBHYRhMp8Ic9zWgEWpVp6qO/3tvs9Lyo72QC+bdeuti9cQISLkwtpM9prqegwJ7wCcX+3eoWrrJEMUOBxC3gjtIYcr7MYTSVgSJQSFvAG33+1Lj82kkmkoGF3TVNveofD4vekZSUqTvChvemZKwWNLXqHgaT1eBubvffmcxW5yec3Nstq3v37tyz2fIM/2pyuLn3h3Y4Wk2uExDFTuqXcRJhOp8VHJSJuIJ+WnF86bvPDuG/7z6kNvf/zkt6+t3zo7dR4pTCYTcPIOuQc5q2CQCfIwRExCegKBQjpcfrT4/Cmr3WIwqhGEm+es4vLYKDQAedDxomg0Cs4Tp+BZWKNB16FVwGFYC3eQiAjPoCfgqZDWyw0KAIQqLlSrDG3Hjx2srquiMEgkLCEpMQaNhxkUcmp00s2T70JBaAS8J/mD7vPtn9k8qhc+fapeKjt47NeyqtPbvvtfTqogLyOzpPVso6V06eyFKJzMZFc0aP6qaP/B6JDBoUCPeRfhntqwuZgXs27Jfz569NvV8+8QsoQul9PiNamUaqfdZXGZYWzQ6rDbCZqy+nPqThWCAILQaw+854ddBmMnGodzeK3esBtZyVqnKpaQIiREQ2E0CgIJaBwYAoNegAjiPC7/1MmT/dYQnxFntTq1FjWKgm4wNLJp5ClZRddOuROBvZQUxo6ylordRyVf7/0B4wvcOPM6h6fZhD533fUFBCa2TPsHkeJi4t2W4LmyhkPyzgq5qlKj1zdrj1hdHT0gvYT771o94oE5CEAgND1j/heP7Lp56q0iOh8FYjo1RrvZLqQzqDRKCAuaYHVpZVmztBEAACaVfc+yja6Q3WS2aN1qq81KIpA8RG97exsaxmNBgh8OWn1uHwxkJ6aA6FBZRQ0QCFZfrDN06nUGrdVhcgWNDDI4t2DBsln3g2Dv/QV5zZB01v52Yd+Or9+k+EJnKo7FxXJcUCMnEWe2Oc1WS0XTIQqIC7rNYAjvsAV9Hlitl6GwmKKk5SLy9GA4pDLXIuH1Eu5FRQQD0unzJ9764qXNb2zcc/hbRNyqlOQlzHhs2Ys0NjUpKZ4n5DXr2nB0tKbVUdFSuefozve/etfX/ZK4ZOry/IxC2B8m+skwBqDTGSE6KG9tFTNEXCIHC2HZNC6bQueQiBgQH80SKDo6wuEgm80UilgEYnhWfvaCKcsXT12HOL2U/qotbpEptJIaOhUZf/3tN84jMAMw1my0mXAA3uIwEFD0DpXM43SZrBoQgEgkaqI4L+Si/X5qe0XrMTCEFjGzAADoJYzUkORyO5DcH/CfKTv58tanK+rK/XZv9cXqFz5/d+G9c34/tu+RtzZhAfyHG76cmjoDDUFEPK1eImXwSSEszEyjXCgr/eCLt+TtzSAIrrl2A54MBbzBADZMp1EBV9joQGIzwYGA2+WxOizpAjGPydfoOi0ms0qtiRVHe2AXkYLCYn15qUVz81cjkSDJ7NLsr//zh8PfHfvrQGXdweRYZkpyLI/LxJNBZBsAjaaS0XTkRIOCBJNRz2UI8TgqnSgIB8LYEFnW1h7Lz1h/w8srZz3KpceCAIgAQsjRk2rqy9767LVZt826a/Mdew7vvyZVnQAAEABJREFUamiTltWVHzz9J0QmhuCQXKM9cHKfxWa953/3nDh/XECNe/CGx50eJ4/FdTi9Zq2HADMnzcgqPv9nVcN5GA6mx+XgsSQcFuf3er0Ep8fgiiJxJKqWQAAOgSFCACfTaixuV1Vl/Ym/LsTHJtm89oPVxxweXXYSwnZtT0jIJaBJUW5paSk9eyxJxMBjPW3qmgDsoDJxfjeg6eyQt7S1SBo6NbqAB+bQBcgLY7wofeHkuxYXPbB87lO3L/5vRsLUgRc8BLaXcEnZyT1/7tr1128qnapGWWvAdHLSaQGOd+odmRmLBfHXsG5ftYgexQrgQYPb8unuz5//5AWd1vD0yi1sOlVr1Ne0NIVQAD4O8mD85dUV+/76BYGeP/nGmrYaDExgkThUHhlNwEQT4mAwRCdSUWiMxWo+U3HeYDIvvHaG3qpv0NbeUDg3N2XqvII7EFskhYHwO7+/8/vefc2tjeIoGpEIErEUASs+Nio+FMDXS+rNVlMgEEiOKpx/zdpbFm6+Z9m2tYveW1y0MSFqcrQgi0SgIyBDUy9hu9uZHJ+1YMqcuFTB1CXpfBzdH2VjC7ExME0AsxblT2XSMVGpjKRkHlvIhLCQy+t5/as3X9j2UkFcTrRAyGNzTHYTYAIzklPbNboGSYPf75uVu1Bv04NhdNAW8odCHXqdzWI2eQwkAgG5bivMRqfNjcfi0AQUiPInRsVTaeDcgtt7QtTbpCcri+UXm3QmRXayKFbI1OjlEIgGIUJ9q8xpCcaJUlfOf2rLPb+suf6FGXkrBOxETYe0qf5CIDDCTlPfZbmLcJPkYkdbDZtFjctlzZ85fQ7z+kfX//eN+Z/ePe+BWdPXLJm7mscTMzmMVUU35qVHF2YjD7yUmMQoMpmMIxJaOzqKUvNJJKzVZWHTuRAWDKH8ew7t/f3gThqJcU3aVL1ZZzQarQoLj8OWdLS6Q24BnQsGMGKuSNmuxuEItoAHjUMLOOCqhU8hJz9C2Ol2nKw4tvO37wuzUrPSE6U6qcFmpRI4VqfH63XkJRTcunjTbdc9myjKPXl01zuvb3juqZUv/veWbW9s3Lfns7dfvOeuFRlbX7l3188f7tn3ndVmRgC7Utf5CyAVyONxpqXkz56+lCqmFORMe3zlS6tvujMEhGh4ZmHsvCRmRpuhKZ6dNj355inx181Jv+mmWctXLJixbkECL5XuJbpLGy/US5vFDCEAh4urzkm0chQP9vr9SELQp6VOE3D5YBiFY4dOV15MEAmmi4s8Lg/ogwLhkMFqY/Oo4XAgToi6ec6mnkV4Xl556NSeyspGn9smZFIIWLTLG6yV1drdBjoOnRF7Y+lF9dYv33112xOffPLMzz9/oFS2IW95GnW7Dw5otO1Wu4lA55bXlP1evP/L77c999omk1HrdTuRYHoSRCCQkVpqcjbyjD4jdjEGhUWa0YxkCEAhFSKWvDTzjgLxnFhmahD2qxyaUmWJymP006OLJiWnpHFjE0VOtx1EQwnCODSIDgTCNBILMWxrk9gdtvSkgqDbbrYavIogk8yhssg8ChsHolBAmA7gg16/xejhsokzcpYnx+QjVl6/93TZcUljVZu8FksOy1Qd1c0SEV2QJYjXdgR276985f2XG1tqT507aTaZkSHLuWbuTSv/s2rNYy+9tfudDw9/sP3EWx8ceurZT+cvuZ1KZcbFprnslu+/fOP44R8R8J4E9RQthvp0bm5PvTfvWwM9zdL6kh9Kd3gtlhhqwtTYRemCIgqBOTcl/+bJMbmFCUqP2k1wEwAMnUJy2zxYPPqHA3te3vqigBNDo3EoJBLgRxFxEAoIGTobDRZNFo/Y1NxKJVMDWCBaQJ2RswLxEgz5fju589Cen4I+V6xYJO9Qq3TGvMyZAn7moRJluxJ5XSPwRSwak0plE1Q2Xa1aUadWPv7h/+584e53vnhx52+fypXNHo8rJjZ1/bonP3vvl0/e+WH7B3unTVskb6k5fvAHxAWSegkj7xYiWizSRpK0vRm5IUuk9du+fHP95rUPvfbw9fcuomFph384rq7X0j38Q4f317dWcwiC6/MeSk9aMT191uyM6DihOKcgy25xyaStfC6fw+YcP3scQROyxEwqq6ND3apUcqh4DAD6zdYyqSEpOT4mSpCRiF057xEIQgVh34mqn3f+vC0rOaZJWa0x2sQMGpGCK22o2LbjUxaLJk7k4KhhRM1msyHbwSazw2Jzu7wBIV+Iw2IVRu3R8pOPvfHw7U/c/OR793/524ef7HyrXSVFY7CF06978L+fzF2yBgkGSb2E45mpSANJ7R2tpyvP7jmw8+2PXz915niDpPZidalCq3jh/S1kIrjthy83/HfDmTMXGi/It3/8rVqnOnn0tLRCkUvOmc4UwVi/OF4sYAhZNCqfxYKDAafTwaGxLDqjgMUVC6IhAOSz05V1qhsyC9QyqTiaPCN3gZjX5frPkwd++Gkvi8aFMBCIZeEhBzch1gYHUACGH0UPAm6jziSTtGs0Oq/Hg1wvNB2q9jZZY32tXW9hUdntGrVcq5VrOtxup0TZeKby+LHKQ3+c+1WlVyKkBiaop4HpPnXtTvvnP24vOXP0YkN1h7oDQmM4dKrf7WPRWM1KmdntzsxOT0pNgkPBI2f+CAcDS+9aiEOTEqKzTpW3psYWpYIEcQxfa+jgCPhoDOTze48cPyDkx7jcRjyRQiUFqHQqGEArdO0EEh2PBpMSaPMnrw2Hw2U1J86VH+vsVMIgjGz5C+goQnRUp83oc/hrKuvqayS1NY0cBmv+rPm3Ll0+f9aUzffdt/n+R377evezT2za9PCDa1avXrH8+sUz5kZF82ITo6goEglNSeJlyNpa//fxxr1HvgkGAz00kbyXMFLT69U/7fpI0akKhcNmkwbGo+qVkjCWmBibyGMxk+LjwgBgsGi1Zo3NZQYh0AfDFCq1SVLz+bfvf/fbriffe9fmpcYGgUVL5kilzRa7wxvw7zywS8gVMxn0UDiYV5BMxFClLR3Tp13X2anOTmffOHsjDks8eubXyroz7SpZWnIWgx0VL2KheDyt0lhd0rS0YN6svIIH19z24qaH7r/trvef3z61YG5ydDYcCuXnFcaI0lcsfHBO3g2r5tx9/42bU7Kyvnll94YVDz3/8BsfPf/dm49/vPXpL75+cd+N89YMvDn3Ey6rLZWrlH5kScia6tslcCgg4vHy0uKzk9jzC9NnZgkWT0lcODl3YUFmVoowJSFW51CFsP7KjiqVWxUdLQ76g2q9TW/HNlc14bF4nUETLRJeqC4PBsNCAT8U8nBi6TR6XO3FM4W508UsakFSVmJ0wY97t544c0il1DI48WUtEhqT6Aij7VpPNJq0vCgNiw2tu2UtnRnbKFfvPXJg9SOLj576zmBo9/ocio7GitqjQTjApLCR2ULyFdNuZ1M5eSnTEmMmIZK+hNwS0ARC152oR9JL2GDW/3Lw5wOnTlRLGgpys5fNzdy0as47Tzzx6F2Pb9m0/Z61b26696sH7/zgobXPb1r7zNN3P/3SfRs/fuTB2+dPS4mOAVCgO4zcUSkVNSW/nDul9IUB2BfFF5DwBMSHyWyFgrj0GA4dzyR4CCGXmUmnejtbqdT0msbK0xcrWlubARBtMhjXLrkdD+INHfrcpJwH73t56ty72/W+zW+99PuRfWV1VS1KOQoCFDp9VWPDydITzW3l5U3nPvj5qVbFRZfbijganJAFOUjULekl7PN52xRqDgP7xLr5G1auevrBL5ctfRkhzmQmXrLCIFsyVBGbmy6OmZaYujSv8L6N6z75+Nlvtj32yM1zsjCYIIfBjaMyVVYTjCew6WQ4GEyOS5QrpQGzVRzHSaCn/PXze8KYnIOfbzlf2uR2B15971m7xUujR9c0NwXdAWlzja5DFc2g4cKaN3Zs+f73L7/79QuHy4onovBEiM2iIJcSCMA7XZ789Pl0vBgHmYloX1nNvrLaPV5//6MF0PMDe4oBebekl/AXv3xFJhG2PPjo3Ws/zs5cisdTBisOaA+sEvCM/El3PrLuq813bFg0PQYNwghis8MScARJmKDDZQBCfgqEc5usEMg0GO0iDs1kNFqC+O/3fIEOe81WPQhi4mLjyISQVFLLE0PsBHKH15CexEmIpxROSbnu2ulCPjcrOYGIBwQiqiiGavXZDp7+QyZvJuN4ccJ0CgYy6ZqNxraBUY1SR8Lr6oV9zm3Pfbhoznp09+W6SzSeAwVh0hKXrLvp/afW3X5tbmYADpphTzIdlybgd2oUJCzstIR/37lDrnKqms5XSE08LnVaWur8jElcD0CEPTi/Nj2Xmjs7zh30IWubRqC5PcieKTYIekOQj0KFIYyfTuM7ra7JGfM3rPrPrKkzUURSeYO0Xakmod1sEuw01QcCniEhdy/iSGkvYQGXl5qUGdk17hYOQyqcdMeLdzy5smhyW9ilVAXjcbDswrkWuaX8eLVcqucJ4oovKmLiEoty0qUyw/avdzP5zCm5SWmTYsJ+KDk2PzsxNy06KUmUOfeaW26YcuOczKzshMzE6Cg+lx2A1AFSuF5Sc6a6WONQSwwSV8hndXo6zRbYZyeROWg0tjfifprdi7hX2lt0Ee5W6L9T9fZcacHmZN02f+WyKZPQVCoWx7NYXEGPG4sjYcGQ22mOE7HFfNqBoxecdtvK62blpedxo2KFgrQpU2ZOz7l20bR7b1ry4tL5DxXl3ZKdceOq69++ef6Tq5e8fN/Kd9YseXJSUvoFdQVPLGRTRbGCVCweL+IIhXQSHk+Dg14QRPWGPAzN3h6k6CKMKMyfeQPSGJy6R2KwcNS2XquU1JdFMdKYGlcMEWptU5vNZjwGx6Ay2Bx2NI8GheFjxecYOLCwIO/I8XMEJp5Bibp21oOz8jaI+Tk0imAk+LTYKWsWbrlh6rKaGpnT7GAxeLhgaOfhX4trO2zeoNXUrNdcGMl2oLyLMNJOTshE8sEJGYnBosu0OxWNJ37/6sXH1+k6zLpOEwDCuTn54TD2QnUT8shS1aioqKyH0FiN0fHzT7tdbq9N4+Ay48LhsQ7tjIypsTyuiBdDw1PVHicMBmCQprTCaqNEUvelxz3i3x9ciruX8KX2FVdM2raSfZ/XnD1y6Lf9MUxcXHRMm6KTSWMwqfjyWsnkvHSnN0RjcGbPXdTe6RZHx82aPeea/AyzQVV8dL8XeRsYm2MiAXkfA2VySRw3USTkU8h4T8DFIrOj2IlsXj4E9Z3Gw6N1SSeMMI0t4ojTpAr9DbfcpjSHK+tleDyu9GKjXGdnsZlUIkGj7oA9DiwIZ6Qmsehkr9MhkWra5IqiGYsIBFJXLGM4uIzYqXnzCrPSvj/8NRmHihMloAOwyeJlsDMS02/D4RmXxbhKwv1LEYXBEcgUldnzx5ESlc7s9gYSU9LS09PcTkdibKwPJPIFfJ8/VFpVbzToWyVyucrAFsav+c+WmISUy7wPB5YAABAASURBVEZ5SQGCUPlpC6fkLVo6fWnACnGo3JioLJ1Be+TMERDCXFIbpXKVhPvPcqQWm5yTU1BU1yyraWxB0sGjp2UaU1x8PJXJrqioqrhYV1YvgVFYBpPJ5PMWzCnkcpk5hVPwBOIo8QH9Q9qvxeNE87gcDArrC1gl0hKpooVO43i99n6NkWtXSXgw8PXLbo4RcTFoCAJB5FJksZjrJbI2hQpAQWw+VxQd7Q8GQhDULGs7c6H29KkTa2++9uL504NRBraRgRzY7KvPm3Ljfas25mXM/vC14h8+Pr/ipufIZG5f52hlN+HhRnE0oxH6EIbV54/NmVE0OS9rUnrC8iXzaFSy2WRgMqkcNovH46tVHYFgGLl/Irdlpy9Ao1G5HA6Lw/N3f6AZAXVEcYwoefHsNSN2j9DRTXiEURzBZHgx8rXhwI8ffLrjq4MnzrgD7halRmmwu5zOQCBQXV1TV18HgIA4SmgyGjs79cIoUWJ8jNPjW3f3/bEJyVgsbnjQy0j74h7PhHUTvgzumLpDwSCEIWDxJKVKJxQIC/PykGepyfmTQhA2Nr7rz21IuNDkgryZRbkMClEqldXV1vP4oimzF40JfXSlPuKja/X0ThhhDA4/dcHycNCdnBAXDMIGvS4uShACUSIuVcwjT59eJI6KKT5x0u2wp8XxU+JjfT5/tFgsl9T0xNGVj2eiuvSv6Jgwwoj3uvIzaADyeZ12V4DD5XFY9Pa2VhyB4gtA58sqy6oledkZBArd4Q2iMOjcSZk1NdWH93zbqW5HbLvSeCaqS7/rGPcgjY1wJGxkq8stcjRUlfo9zoLcTABDhoNBk9lcUlrhDwI4PE4qbcFicGQKxWi2E9FQQ6u6+MTpE2fKxALBHQ+/wBP1bg8jIONP4x6ksRGOhI1s9QYZn5K9YNmaqQtWWCz2+roGRXt7IBTWdJqcLh+BzECuw8guPLK3tPfQiTAAkUkU5JI+Kb/QbNL32v9TxdgIjyEaAoF4dP9Pj27cEPQ4+Ty+3x+MiYmZnJ8RDgVxOGxaeobBaFIolTAMo8BQWmoqkYhXKGT/fWJT8ZE/u+HD3fl4s3FbDSY8FoBhdaxmA5XOQIghISuVHRlZOYFAqORsZSAE1DdILpSVmcxmxDAlJRF5SJLLWqZNnep0erx2+7yF1yImAHLXAgb/fEHv3qofj0sODu7obw+72vq7h9YGEx4LwLA6dBY3NWuKQi5FfMChcG1Ntc1qTklO9nf9fFgsxuv1CISihATkOzAFS8AbLRav1/f86+8h+kOTzWWskZd+fOjNGlmV3qzT2dQ9OiV1pXtP7++p9+bIKPbWxlQMJDzUdKhkNFAiibRkwcw1K5cuXbJw3tzZUVFCl9Pqc9lvWblswbzZuTm5TU0NVqcrFArp9Ua/x418Jfr1p8/Umnaf3xMc8HHA6bHtOv7V2eojZS0XC2Onriq6m08TqXXKd37c+sQnTzUrGiOCGHb4IzQiWAwkPNR0qCQCaWAjHArt/+VLpVqn6LSXlpa5fQGfz5eUlEzAEySStr/+OkYiEZFRUCmVrS2yyZPzUpPj5syaHp2c0dhY/dzrD12s6n2itjnNvxbvMNj1bTr5Ezc+eV3+siAc/OWPH559d3Np67ln1929Zc3TA/2OoR7BYiDhMdiOrNJUe8FmVmfmFqoUbTwuz2YyBEOQQi7X6XQd7bKVN15HI6DZTEbOpOxJk9KAsB+Lw1VUVer1ht0Hf6GQqPuP7LE7LQh8cfleqVFpclgFnOj8xGmHTu3b+MqGkopiAItePfPaGRmLEZ0rTN1mAwmHuyVXmKXnFK3f9AoKjTebTC0tEk2HoupiuVqr4/EFdAZboe7EEQlt7chV2oPBYEMA4VjxqVAIsJmtRdPm/1F68kJzQ1X9GaNFWyO7aHPYY7ix9y567MWPNl+48GeLuhVHJj1995Mr5t7NGNsrUTeH4ekMJBwx9d02484oFBoIQVnZ6XyhEI/DCoVCu9Xq9fl0On3lxdpgCKitl7W0IR86W7hcnsFol8naWTQmEAoR8HiJStLcVgOGMWaT5ZrUWTsPfHakqhQgku+64Y77lt8Ph1B/lRyUtNbpOlU+39At6IhQu7kOT2cg4QibK2tkZGXhMBhDp5HBZIujY2C/z+FEvtzjuHw+Hoth0MhRUVEqhRLp4nH5+bmZfA5t8eyl189aFCMWm+ymc9UlAIiL4sdpO/UYCPvc+qefvuclv8P98Csb73j69s9++Oh/7z+79fNXv9v16V8l+378fYda3/UHnkNDHZ5rt964CXcPXrfpcBmDxbbaHXa7AwJB5Iu11WLOzs5G2uEQPHXGdBGPC/gcy5ddi/AH0SiT1ebyeEtOHP3vptcpdLZcZ0Bmu6SmLIode+zCX2E04fC5Y+tfuHvX8f0GhxVCoV1eh0LT2qSWKDqlO//6mcsTi7j9/+EREVhEIyLQkQiPaDHK4FlNuuL932Mw6NiYGIQ2jc4URscYjCZfICBpkuzcubu1Te70h1RaQ5u0BblcBQLIa1Xop28+3bRp/aKpC6K5wnZdOwiAHqcNF/J/uAeZQPW1UxZ8/cr3P729s/irk/s+P/Lwus1xwkST1ZWTlL+gqOeJpZtPeOCDS0Sju7s/G4kw2K8y5ppe1UbA4bhcttlma5e3ofE4hBGTRY+Li80tyIuLjyMSyGZDp9frxWDxHq9PImlGvkLVNjQxhNwf//i206oS8hmFaZkKldRsVzx867pdb+2666b1Qp4wNTaVQqIQ8MTbb7xr23Off/rKt5vWbY6IKyLeiEaEGgBAg9pX0wwG/FKJhMPjB2CYyuYwWJy2NgXyNGI0GQ2dBoVMxuWwWBy+RqWhUvDIOkfuUi2SZi6PX5SWu+OF71YtXAuB4bm5U8Vs4VMbtt5108MQhIQHjiOkMKLbdSDFSAlBHKlrbPIB+BgMDkNgKFpauhZtm0IukyckxKg6VIFAiEwmcni8Xb/+Xl1dSyTRFHJ1dFQUmUpB2Aj4Ijabgziblj2HRRXVSSrX3PRAanwOIhl3QuCArmMUQ2hAwKOo9XYNozwA3+n2Hj+0j0aCUuIEeZPSuTw2Co3WGwwEPCYUDtNZbJ/Pi9yrQnBQGCVGzu1QMEQjU016naRFjjhoqDpf+lvJgc+PcJkjfmFC1JA0TBiIdGwJGhBwt8WoYIOVuy0uZU6bZf7iRdNmzuLyuK2ydgaTpdFoqVSq2WJFY5Gd2xAKhUahoFaZTNJUHwZCQRh22Oztsraqi2UIyIXjhxhEMtZhq6+4zGex0cNAoCJTBKUhS3qcYAOhswunT5482WQwcdjMSZPS6VTS5MICPA4PwH7klVgiaQuHQ8gHNDaLmZGWlBInVCgU4rg4BOHcmdMd8labRQsH/Nddv/DnT7ciwitMEex6MCIoDSHco3NFOY3Fnbt8feGUa+g0ssOoD8J+DofZqVElJCRUV9bw+byUlIT8/BwikWR3+TUGO5HMgNCYgoJ8ZN/n7eeecCsUIhLGZbAYder9P351RSEAlzuFJ/QqDQCArKkGuSIHfEGOQKzTGkvOlDHZHJWmk0anh0OAw+GGIAiDxVktFj6fiycie/I4mUwOobFJcVFkLi8UggE0Gtmvryk7h6BFpHBE64obEznDSBA0Osvncbk8PllTvalTg0Wj6UyW0WgkU2h2u02nUSEbWpJmCZPB0uktEAB2dLRTmQxBdLRWb7Lb7WEIRParvYHgmWN/+n2Rf+qNLMzLcL5MNxIekiDkmMCk16juefx1uVRGIOApVHqnVt0sacHhcI0NDTabjUiiepwOfyBYXddgMlkoNFp6RmYoHKIRUQwWHWLweeIoj9PGFUdDaJRS1jI4MITzYNHA9mW6e1QnmHB6/hSb1bjihrlYKEilkgEgzGaxbXZHelpqeloaBII2h5NExOZPSmWzqD6vR94mDwYCJ06ftzq8ZqOxVdEZlznJbdTFJKXRWF1/YtcT5QTmE0wYiSw6PjUpNeOpLf9Dh91pqclMFnIWc9LSU5Azk0Akq9UaJovr8MJYLJ7D4ZLJFB6Hk5U1yWU14Ykko16PRUFMUUxNdRUEoRC0CUpdq70HaqII9yMiuNdce0fRtasWLFhAZ7BkLRI6g7n/wKFQKIjFQ2wWi8NigCDg9bqQ+7bX56+pbdTr9WyRuKmxVqPXn6moROHweDyORKYgUBOU+lf7GAhHcBkpgH7EHg0QRK3a8AyLySFR6MhdCtmjzsjJTEyKEYpE7W1SEAApVEZlXbPeYAaxaKfbY1Crs7NzggAQE5cQCMKTCorwhK4/1exBm8D8soTDADjYXXiwYPi2XNZ670OPx8bFl16orG2QBIMhi9nd0NJC50fX1DU3NDVzmAyn02E0mLU6A4mMR2MgsZAPB3xYPG7xzauHB71aafiyhIfQBYaOADDsLzUjSygSIys5NzudyWAaLe6a+man003E40XiKGTrC3nk5HEYIpEAh8fyGSQaFrpwsUFjMAVCqAVLhvu7sWHdjFXYM03gZQmPFW9YPZPJ4HXbKWQikYBCNj1w3au0oqraarWxOTwSEed0epQdauS7jBdLZLA5yLYBUl+6/FYImvDAemcOGvavRoaN/gqEnZ263Jx85GkkOTVbq0GeQ7CxsXHI5yWb3YZs05os9k6DKRwOI28RbUrDL3sPOZD5p9BX3HrbFfgabNIzo4OlAAT0Mh/SMxGC/IJrXnxjKzKf5RfO8Hh8gYDXoVQkxCfm505CxiI2NkbEY2ExaCSEDpU+KjERBMGX33wXjcGM0/lw5BDQ4VCg4YRjkQ3nYzi7c2dPWyw2hKzXY29sbIThEPKRiYDFTZs8KUrAgcIhsYBPJBI0qg5Za/s7770/Y9bc4WAGyIbxPAK5AUaXquMk3O9srD5SU9OiY2M0WoNGZ8rJyaVRSWwGFfnARsVjiHhcZmYassmckhQ/bUo+MtuSytPlJw95nPZL8Q1T6fPcH8swSiOKxkm4z9mIeAM6LEb99vffvH/dqpryUgYZz+WwWlokyAlstTstNsfvf5bYHA6tzugJhDU6Y1Njc6w4Wq4ytVaU7P/kxT+2v3p+//fVJw5a9NoBkBHVgbGMnfw4Cfd4HAE+HAqZNcqqY/t2vbn5iy0bfvrg1eNH/pRK25BlHAwGFEpFdlZaYmJidlJ0SgxvUnJckojHJhOS48RcJi07IzPodeWkJyPXMMRJWVlleVl56eG9e95//sQvX4w8572hDCSPmI+Sxk443IuNgA2B10gbin/86LtXHy/ZtaOt+qw/BMg6LRebpCgMNjYuLjU5ceUNix7dcHuKiFWUKALsJqzLPDUzkYEGp+RmzZuSOy03nYf2IE8daCDU0CyDMeTklBTA6wSx2MS8qamFM9wOG+J2uDQklEil/pj75GMnDI6CffHYfk2HyhuAPf7A7j+Omsy2zLSUaDFyVWIS0MBN86bHMclCEpEJ+0CDMjkutqioKCE2GlnkFDJJhewPdCjEoUg5AAADY0lEQVTowjgAwoIoNJFA1BnNRCY3e9ai6TeunbNinSA+hSUQ9wU8vnJozGMnPMhTxNgl5U9jMhnZWRkkJnfNHXdyOUypvMNlMgh5nPnTJpt0WqvTV3LmfKNCC/Jj2zWdFrffbnOYTGalVsdmMdhsVtDnpVKpcWnZ81esfeyVD5bf88is62/NLJw6yOu4mhEh9lkOIjysTp9uRNk1dpe0UwtnLtnwVNHK+26457Gl6x9Z/eQbdzyyZeqi62MSk4lYNIWANZvNKekZBdkZba2tGUkxyCOHwQu7/EE6FkQ+L7KEsQtvWbfq4WfmLVs1ZfYCYLTFFBHECI1wj7wrxJ7agHwQ4T6dXpMBisNV+7SH6YtLSrnptrtW3LXx9iffWPnkWxueeeORNz694/kPPj9Ueu9rO5794Kun3v7sqa1fLbv/6ec++XHjc28mTyrsR7mM98t0A8AocQGDCCNbFEDXbzSTrv5xHTgCkSuKHmqCvPHzYxJAcIizIYJI25G7RxuKXowBhHu0+9B6Wr1aXcUQwd/4FD7UV1cElz/6gh9FcwDhXu1eZ72tftMhglFXTr/dldSG+roSlGFtBhDu7f8bnfV6uIqidzauAmEo4asA+xsXeW9UVz8boxGOGM6IRq/7IcXVxzMEcqIFoxGOCD+iMdFRdOONaUi7Na8mG43w1eBege04h/QKx+cS4Su0HwuxsUCPRSfS1zjHp8/4EuErtO/DGVIOYDAWaERngMUAtOGlAxTGWb1EeJx2l9RHCghhcEmnuzKSYndnVzbEoks44Tf7qyY8fJjdsUZmY1aMNJvo1lUTnuiA/m68fxfhyy77qx+Ofxfhf2DZ/4OE/4HpG8MCGDvhq4736qdv+BCGl47EfeyErz7ekWIYs3z4EIaXDgbta4+B8PhGsA/431qOgfD4RvDfSrQvrjEQ7lP9F5fjWIRDCI/DdrgRuErz4SDHIBvHIhxCeBy2w0VylebDQU6sbAjhiYX/96H9f8K9c/J/51zsdT624spCHGmG/6+fi5enc2UhDiF8eUeDx3/8FgMRRrK+MjoDkYevDyE8fkfjtxgYCmI9EueBahNWH0J4wpDHDoRwHrvyGDVHHESE8Ih9Y8T+V6qNOIgI4RH7IpmMNi6j9UWiDGh1G3VnA4R/e/X/AAAA//+DYxXfAAAABklEQVQDABVCgZKeIs4PAAAAAElFTkSuQmCC;" vertex="1" parent="1">
          <mxGeometry x="480" y="300" width="106.67" height="200" as="geometry" />
        </mxCell>
        <mxCell id="k7D4iroLJhiQljq5lRiS-11" value="" style="endArrow=none;html=1;rounded=0;" edge="1" parent="1">
          <mxGeometry width="50" height="50" relative="1" as="geometry">
            <mxPoint x="980" y="620" as="sourcePoint" />
            <mxPoint x="620" y="260" as="targetPoint" />
          </mxGeometry>
        </mxCell>
        <mxCell id="k7D4iroLJhiQljq5lRiS-15" value="" style="shape=image;verticalLabelPosition=bottom;labelBackgroundColor=default;verticalAlign=top;aspect=fixed;imageAspect=0;image=data:image/png,iVBORw0KGgoAAAANSUhEUgAAADIAAACWCAIAAAAT0EweAAAQAElEQVR4AaRb649lx1Gv6vueO487MzszO2vv06xt2RATjMhDgQ+JQPCJPwDxL/CFbyAC4kMUIUUIIgQoUgQJJCRREEEBQ2KTFyFxEtvaxE6ym7W96315X7PznrlzZ+bwq6ruPn3OPXdm1umtrq76VXV3dZ0+j3vOrMt+jvLShRuf+twrf/6xr/3BH//HH/7Zf/39p7//3Zev/Rzj5V0dHViyEdb/e/Hqn3zk+X/47Ms/uHDj3tImM+/tZT+5fP9z//7an37sa9ffXh3RrwKunOKQsLhiHPrPr1z8zL/+cHl1W0eES0ZgLAzu65u7n/jMK0srW5RBO5y4yqUirINHe/EH15574RLSw46dQ0sMiZmUWMvG1uAr33yTuGrCwzCbvSKsg0f76td/lo5so3gEPUGapZdevbW+uePxpCn4FxR1yvxaKsJSezVberB1++6GZkQYgSFhIAhDdPP2+vAoEnZEC4qgWUCOFFYmXaTeu79B6GkkQKgpEuQbt9fUHHurdiBDV7MfEpYNGb0Hu3uMuCwxSBLI5IRTkO892NI5WPnDsSQsC6HYvTRku92o8tLdpCweBWLq7+wVBztcC4NnSVilEKoGmZnu6GkXEoLWMTk0So60EQapXnf0kCWEwIWeIdiRg01PdbpjDUJvUOoFlaUKFtp3kC3prrUQFgZU8CB2/rFjrEWSFPMkCAnTatJgd/+ggQ6ypQfxIL/c9uy7TkAZzitCyHR7wWrUatZUGPZV+CBWPIgHeQbbM08fH+s0mC0jzEgYSNsoi9Xx+dPT2omVPxwrHMQjdn3qiXnCzOZtuUinFpkbdfcrTy/AxewQHoreSVjzx7qMgiQ5lh0GGeRQAzk+d7LXbMhBlCDJl6OH+E7C0r2MKTJUP2FogICIspPHJwKWt2mIOVolvZOw3njrQUiLtsU8KcRnT/aqpjsq9tBhXbm2/Oa1ZZKFSxVB8yMTKgDhd37j3LlHpyC8Y3q4sLa2Bp/90quWD3bElifHssMc++L41599lA4rcS2Vjq6EHuC93d/9u3966e7SpnRJrlGJKBbU2/fVB9JoCpmt9iiHNcr71u21j3/ye9dvrVpKJD0meU5opaJh/vI3Xt/c3o0THrDU6FMSymGVzFC3tgef+sKFv/jbb9+6Y89PRIgdRFogsFQooaU3rq/85adeunDpLkAQzOAPRaPCkhVubO7899cuf+SvvvXKq7f4oEIwooIgGG0P9r74/OVPfum1lfWKR+dSiDJZARpxT1xZ7f/Lv/3ojz7y/HP/87O1DT8uOoNwTVIiYsLTlSKQfasmL2PPXbm5+jefv/D8i9cerPZpdBlKJ5eztb6x84Uvvfrhj77wne9fw7oJFacYKAqOBYRaIhf0KCiwM9j/9g9v/fXnL3z6uYsXry4PxVZxTYZPIayv/+8bH/7o89/67hViEqLqgulya6UnQOsaBaI3b65+/oXLn/zyT+8u28M0aVY5cbE+wvOwPv6J73zxyz/e3c04FFm2VNWDQMzEGVcWxzhD4VAwulyD6eb9jX987tItvYIwFYuGaZAP6/lvXL50+Z7uDMqwadQIwRBoSRdoGBAEATCIqo8E7NIfRvHxGlF/sPfPX/3ZRnIFURORDUlSJKzNrcFzX71EtirnW9OEO0YOREB1zCAITCKoTMxcQyUGyFaIMY5aOZZEHexmL11CFmhUcTD86Mdv7wzsVwoTgZRpqxL54hHVcjlIDAFEMoDIJEWATBHRRNAW7Prdih+3wI0krDeuPCBmxmocoY0kSQJoehSgquxd0UVVRgTsMWIijsWbZXzDiDHy5rYlgiqLA3ojee+Diw16AcxQhdKdQQHMBXHRGk2qlR1gxcsrQzPGJNn2Tn53si4pl7DW1vthGZyvyaAEICBh5RCNBDQJHFYQBB4ehgQOVpj3EWkSSFEjCavf3yWk3TupBAYyBALIZPAoQ+DQj2HISeYAAgJmHIIRVBBk4xCUipqGhcD9UmQ1JHKsjr3uGEuMsMnEwcpsCFoQfMFBxNUOzNxu1jWeaibZKls4AOECFnRkAVuN9HoWsHKbydZRcJ/EPw4GTHQBIdJUt4EGCPgwSViu5vK1Oi4sEeuqpuDlmB2xdGIUSOAMkI1JQwJpFU8VmHvjLUTDqFXkAMIRPJK4MhMHAALINAggkZlyHyYCKdOWYoGaERwJQgRV6LYPO4joxihYIoiZGEUZ2kBlXbwiRuyizKVCDq4V1vGOHESNsII5YLj5ZHLzgpiTXFuwD1gQWKVRWQR19mBRTqzBngXBbMIB4SqGGUSprO7ajRVZnxMmFQKIWZhUwaSW5FQVs3QgE4ST9mcpQ57i5nhtK70qlWNzr1/FnUfQwqJwDsbcQACJC1EUKBQgoKBJG9UoCBpqANe2BgGqaN39B/INAsuSl+yOCdJoEqurNpN0JW+r8iFXsEq2KuLxkLONpTsEW8mjaaNZBMvwBktxkUVARuVBC6polTXakn3ksdX8rb1H0hFcvV6TJcr6dDWOyQkg1RVkSaegSXWJDBGqyzcVxfwBhxUUEgagn78rZBoqroPrh+CoILFLI1Xk6gorKLVBBSmSrJ0RmWKUCyQFPjt5WIKUqmu361gGYwQsAcTs14vXeWdmjuNVFkAQcJCDnxBET863vhcHq+DEKCKg8aSQlzfwiFAKJ6iuFW6Z8fDLVUXN73nmxLlH5X0QFgdSrJqJVSp2JxpQ7oZhQaYHA1oQbY9+cY+9JctJF8GyAwQ4++jUuVM9v7TYiHtURKDgL0qo0n/IMxitpQOOI76+ErESaYGs+kyv3e00njg7g7egYgAOEilUqCDRfGOns/YWNK04r4KKg0HiQ3TApQsrJQue88UR5JOL8t4MMT379AJXldANtiDiXNVBVFcGo1KjVmNWxMGJrdxdGfkGwO3vyWEmK3IpMik7fWLSpOQdGjxBRHDD8zg2EuUFhriHfNpyI7WaLmiSLThDvXJ3A7ySHD5GWuzghBrozCOSLfTpTbR6ky3AsIIgDJFDdtmSwdUFb50bjRoXfe6v7YzaXm4NV1smApEWCEwYYnGuq7qwsXZ4CFFrIRmC6OIhiG+xGsjY3XszE00/SwDh+tY9/95QhwDgya2u9YnLZfFYHhMc5WEfmwbkHVVSNtzXu0hDxCQt8+rW7syEpNxUDvibd/xxZCoUt4ywbJeIxQfdm2xHr8Hu/h17X6oQNhBIRXSDP0i12Mq2EyQCll08jgLRvmjFgZiu3vNhqR5wIrfV3+VYJAFEzMQUy1V5X0qCsW4hHlGkLxP+mV1VEYMw1rLbSdDFxnj7lTxKcJxUniAwlpBgMIBoNzk95UUeAwQhPeIkzqKRCJQUAwGYYByqErKlrTKYQJrGlaoHr0LsmJ0dsePNbX1Gk6RmG+iGIZgYpeQOxCjiUTB/tWpPGvc3X4UStjb8RonINfWrHwIA6UKESShoWepgLzxoQUvI/MGxXUCJBaJcnNCA4AAOqtfczHhTEiTDAiCCwLReGZZ+HNTg84Vyf5CHsru7r2ZjhFwyMzGKsKQTQEG8AY2QRyDC85HZMesOleEuxENhyULc/MwYxcJe2sclwYt0f2VbRJhAJFVUVBPBQari4o92FCGO03NhLnSBrqNtJynQvrCROz43LivAWlgKCWPcpNVD2P1V/z5HLZGZY1QhEMlAnBgMYCtIwtmF8VYD13oD4AjivfyAEwrcwN2JhXGToIjAREzyyEq+PFjTbMmmwADi4g2C4Nz0iG8IvaOoHnCRR37C9a/m+LGFcSqW3eTIwIL5wd3isXENnphBbCVmCxdbQUIuRUaNKk5bqAXKB4FE5gnu2E6dXz7b05xqH8XTixECMnLHpjsqSVDEKhJNT7VNWi59GgkO0dPcCtx8uODCRKv4vUp0bKJ1anYs9R8Us2UmeTqd7XWYSYm10CNzPtX4sqJIzpAAuOa6SVg3BOMQhAie0oa6HD7SvOf8jDxzwRnEXJ0tRBcSBlEIWyM+PqyGsZJ3WrCDxDNUqCDRcF1RSZkAGbE0qHdX++Cg+cnWiWk9Ghk02t6teLfrYJGwHFNYFp5q5v2RpbXNAWASI+V7gvNCbDbWQpIGSA4VBCO4kqM7q/29cLxwHBUFE5/hhPmwGNEZMY5g/lQjj9uwMaqZE64YLCBBVRVhuIoJlW/bJZCoN9YQL8Gk3Rm6kWhYvY7E7JfItZqA4k60rtnCxDy6SF+xhlbkUMOYzMTO73qM/MgMdjPHcul2+ngDO0kE8zP+1MBrT9zdcIERi1Y89mhbZnADpSj2CUgRXN7kYqUyEVMsS2Gn4po6NZa/DXz5rZWvX1qKbhAkrIluEw/sMfbCDXE/izgxE/4xc8yBIzaEYwFichRMFb7Rz3f3WNMevwRHvbK09cLFPDJHWhbDFQHa6oY/ZSDvlo46A1OKgmoVjJk4wBBA2BLJwwKSrRhFt+vL2y9eWSEtPqzJ8SZbcbgcZ9985aZaaT8jgzVDKsdUqUEhlQpM4KKjmLf8XTnD4G0cSA5uzg9/6e7W6/fkI6gPazOuQ7rQN165uYZfROgttzOFIDMqCFvHI76RjRRE2D3BjUi65Ka+v0QJ2sPJKK10Jr151mvU69Rfvi5/P+DDQhAaMIMTM+i6/iZxuBAVVw0TjyxqhD8o+ojs8cFuHuKJXltcLE8i8bHx5gcfn8bF4u76wIfl/yyAETcpI/uizKYYF+NQNVPK1UU6GggVAggpUQ4ANIefjWgCwbK6vddt1n7t1CS2nQ8LVmYmlkJoHV2+IX/FXa/JYgUdrmULiUsRLGo4EhwfY1p1N9VpqIN0fGS6vb27f29jcH5ubH48vBrAAxZiZEQX6Kb+3sUbDQAwgVIrVq4kRhwYECRQSYgqTEb7uuVMnp9sYth2w82M1btN16zzm0uy32H12cIVVdYqVRcggtwQ64hLZKmyKGmlErOqygTwVTqjxh0D2Vt8k0RFZ2c7QPt72cJk6+7G4MxM58pS39LpwzoRf93jNzEjXCKmlY2des0U8sU0cBCgYQ4wIbFLVQgCy4mtirBHeu2ZbmN+Aj+HaGVrd268iZhursofqfiwZnFeOMblnpifPD2NKGcn29furOP+iAUJ4ZRkGEGiDVXFkRsQyx6SqnLiSSpLQLH+5pOzv3py8sZKH1vqytL24mRztb8Lqw/LPqOdWZzAjjm1MI7HrHefP3bp2oqDneEGCulHOv21BqBRuoUgm6cIGE08MIL08qI0obbrbrbbeN+ZqXctjvf39t9zavKxmQ6MmBacEBaWMtmVaz1+jW329/BO69bSltx72FbJSAAxGBw9EUcbD5VyroKDTFeqCxNNbPzffmIGpyYIVh9Ws+Hmpzsb24OJscbN+5tz0+2fXHnw3qfm8SELTsTCrCIJJoDnMCQQIBATMxoShsoqCCAVwUqjNR1KgZz5sAA8cbp38drK46d6F99aOXN84qdvrTz7+LHxsQaPLETDJkw7DCri1FRzTKHkXlpm9AAACYpJREFUUkBim4f1vqcX2s3aqXn8bJTNcXKhizeI9Zo5APFrQwMKmwZiRnH4KOjwmVd934zID6bWg5nNKj7NRu33f+vxp85M/+4Hzkx0Gr/3oV+YnWzZj2DS5SpLROjQHJoqchQtUcBoMtMRqsMiotvUeBPy02emsasggPACHLxAsQMTsfxr1t3jJyYgkRUmldGQLxBZMOxrjxzWOC55xFkVx5RJKkjOQ8fCtbIUWpzunJwdEzGvxAxieMGdQ2k3ajrq4Sw/iN6XfWsNwjIh4QjcbxeAUMZatWn5owaIIGAFSqDMTv6CeViRDiP+ZDE64zcjMzFKXLVpQbXzq9fVExYgCM4peQTdaLJdjyOrICGokDCGzEPZAphQt1Uj8VPIhNgDKohwfjGOTjmvTNYRLZGKzFOdUlhmJCtpjHGSYZMguDPKynXFxAzipCjMdT3ve3qHEKOiykRLa68clkzhrzVETHkphZWaxGm+15ZFYC+V74NiFRMRa6fJfEqBpUoXbcmX6TH9Me212Gj/qKlQCkuxIlvoddivXSJgKw6ySs4POtnR7cWKOzVFps6zXbn6FMceqbmRlmCYHF4iwxYqIQ5C8b9kBIYWKKpMs93Sxgo+Ve3hYYWvD7p2pAEkIkkKVW7Waxh5olNXjX2JikPcgh172GwVjj9mKBI+BcIBVISheczeJrQbhRuGbOSYKvgSzQxnXfFK5oAWuwMoUKMWFy6LHq6L+kazWUiWz1DiTNPJu5DCBFWKhFWF5xiCgsKIHQQJBAEEgWhusjnelk3TafjH/oKn+oBNqA8EI59nU6r44WFhCI4FMRbluUn5ozWMjJziLiQbLjokQlc/4cDNKCzKtApeDgtBlLz68ge8uHDhtahaGEL0yuZDWLDJyYgmJ7iBRMfOk+bINe5T37+8jozkridJkqrrjwKz49OzY3Eu3FvUocSIHHUaWL+fIvrLaZEoqejYa6H1amiYMAkUZiLWf0RohIjOzXXTNJyc6TD54gVtwFp1hIXWW0MTkKGA4R18RrT1GieFEtkd77XTTien22pVHyeiMKncaci1LXcuxRHCiw6Hh4U3b9E7PJ4bkOGoiRTmwG9iOS5+jozwG1rMUsfkIIrgq/fx2nBzeFjLeNnsmGTx2Ess1XllVh+yif2wSxsDNYARKsgcIZTORN9hdHN4WNfubWJeZswUhslEmGjVxvxprzrRPXwgYjHBWZqkwjlo3jmo1e0hYd1c2hrsZVwsdm4uTMWNpbEgrDxb0kFThcVwSJUFBGcTqgMy9JCwbi3jYyIuWuKMd1GydawS3v40BU3qg0398O4d8LRl02f1ms2CgMw7CqaWuPSyDmoQVYWE4XMINpOuWxKQ1rGm3HOiL77nrPb3UgeVpat/YxBdDxEk6CQsUcs9ViwBahKGysTq1SqeXPc3fKpgNAflstbSZ184HEpJWFW+a9tJAmTlmgJlTqeNnfB6WGEwQvXkfCtuEqG0R6kHhYUXhrv7+36UYhAA5R0TmkDLW5Ytmxwc5G11p52Veeiw5qCwMI5fbKFBMkCMt2Tp4BuD8OcSTr2dEycWNv0wT1o2prOmkuPJroMrExOBSAurCM6Ey6xCniG1avMqTkdmkcEWuo08dcAKCk5YQGVyOVz0Nsf81x8TW7FkMK/398zHuIetMW5dHM2NNdicjBcUKmrmgWeOCEcBJglRanicEhkwyCTwTXkOA+Bpso2bMeB8mWZoOFxO7ZiI1cADuDlZhyE3CVHq8amW5ShynwgxSo09H+3Z4wMuc6TOxjn5ZVHwjx1LgjmNCCv4PopHKHMEBwUcYt2BBZ3oZK+FJyBsqVK6JrA7xcuyINIhVR2Hw1I4dMWuX0QanK6/yPLLqfZAlKemNbXi7FPFTJMtHFwMV1gD9JGkjsNhKZx0Oj3bCRrmBxGpS/5QoCoRJccLGkicu+GzEnTJpTYHM3QbDqvc5cyx5E2fZIKlOJ7qlN9ztJEx2Ag1p64/iDZsWIFpIzicDg9rol2f6iR3ZXTS4SbCqaeasEZNbCxMVKvdxuFTmKdxpIoyXCByDaopZX58qo0TTIhRkA0Qj0saCiFYspjFyloKz8oyYRy5oEQUAuNIcwwLGpEyGi74XAvnFEdiWvVyGuoOA9jDGWYFUbue+MCYDxEU8YrpUIUkjKQbjSydptPF56zdsPOr0KWuXsrMk9qHHkENTxmGCi3FbAF8GPLPm8UuCEsAzllbd5voD1mPlC0cGFt+5HU8IAzNVHNh+3k/Kp6GQx1GA0cKK2wjHHsQ4eCnn5wpFNhA6S4sbPngljrkWFE6QliZbBG/fr9xaGevGIBo2e4efiOR92QRWjUuTmdaJWgmz48QFtNEu846lDCptLW7LwOo7IWMAQa3jNTkOL56Ea+jVw0rO8Qfe3kSkYVUYW7m/C8afGem2xvxVzXs2Ge0s7ev4XmXozca1hG6To/JrSbEjw7ZSvyzHD9bdm1lx0Rx01+VD/R7uIEPxTWsI/TArkcGfL4gMd9ZH6T9Vvv728iNmEgYC7++hv0mQaaeR5GPGhZ+63EYz4S3i2GtbPtnaETB8GBiwpmx//qyT2HofYQ2O/LlFK+TWAoJ0/pgew+xxkl29nEawkCaUXMTfmV10N9DqOYYBVNHcKajZgsHUXaLDisCEX7dX13O/y6uno6kbqQFof/g9tb2rkHIoKKmqVjFDvueGPtgdEmDVBKGvDC9dmfLX8CITk+1HptuHRtrdBs1MSZ1Y3f/m7c2r63Ln4P4AUN4Xi03nK6xbEz1m3aWMTFQqcSMrZNduO3/ow7gX5zrvP+R7gdPjz8524JqpL4EfnG5/9pSnl2zjuJHDWsCd11OC6lCN1Z3rlrEyQyP9VrHu7gCwwVuIBP47vb+2mA/cRwpHiks7IRnFrs2BmQTjEN95e2Ne5vJAVLD+R4SBqMqYBCzrK4JhlYgmAq6KEcKC4dgfrx5fq7DnC+dk/L9tzc3i2mYaLonZlriLTuR8CgLd+d4tj30oMYSR6keKSzr89S8fBlgHcU4cBNw0fzerY39fN0inZ1sPjvXnqjLFDv7+x9Y7Lz7WAtdxIbmQJI+BzrkRjwBPzmHX0GSApZignFeH2Q/vo83muavsRMd69Tee7zz7FznzEQTT7idmuBSzWs0P2pYtsRfWhhbnGjqaHg0RGswuNDV1Z0kYbB6mm65U+PJbycPH9QcGBbmCn3jEt9/cuJD56aeWeg+Mz+G/B0fb040ax84OY7r1lOzbRf8kq5hiIdp/x8AAP//HMgYpwAAAAZJREFUAwAOUcCJZF20EAAAAABJRU5ErkJggg==;" vertex="1" parent="1">
          <mxGeometry x="950" y="635" width="60" height="180" as="geometry" />
        </mxCell>
        <mxCell id="k7D4iroLJhiQljq5lRiS-19" value="" style="endArrow=none;html=1;rounded=0;" edge="1" parent="1">
          <mxGeometry width="50" height="50" relative="1" as="geometry">
            <mxPoint x="920" y="560" as="sourcePoint" />
            <mxPoint x="840" y="640" as="targetPoint" />
          </mxGeometry>
        </mxCell>
        <mxCell id="k7D4iroLJhiQljq5lRiS-20" value="" style="endArrow=none;html=1;rounded=0;" edge="1" parent="1">
          <mxGeometry width="50" height="50" relative="1" as="geometry">
            <mxPoint x="800" y="440" as="sourcePoint" />
            <mxPoint x="720" y="520" as="targetPoint" />
          </mxGeometry>
        </mxCell>
        <mxCell id="k7D4iroLJhiQljq5lRiS-21" value="" style="endArrow=none;html=1;rounded=0;" edge="1" parent="1">
          <mxGeometry width="50" height="50" relative="1" as="geometry">
            <mxPoint x="680" y="320" as="sourcePoint" />
            <mxPoint x="600" y="400" as="targetPoint" />
          </mxGeometry>
        </mxCell>
        <mxCell id="k7D4iroLJhiQljq5lRiS-22" value="...AGACCGCC&lt;font style=&quot;color: rgb(255, 51, 51);&quot;&gt;T&lt;/font&gt;AGCTAGCG..." style="text;html=1;align=center;verticalAlign=middle;whiteSpace=wrap;rounded=0;fontSize=22;strokeColor=default;" vertex="1" parent="1">
          <mxGeometry x="130" y="370" width="310" height="30" as="geometry" />
        </mxCell>
        <mxCell id="k7D4iroLJhiQljq5lRiS-35" value="...AGTCCGCC&lt;font style=&quot;color: rgb(255, 51, 51);&quot;&gt;G&lt;/font&gt;AGCTACCG..." style="text;html=1;align=center;verticalAlign=middle;whiteSpace=wrap;rounded=0;fontSize=22;strokeColor=default;" vertex="1" parent="1">
          <mxGeometry x="130" y="490" width="310" height="30" as="geometry" />
        </mxCell>
        <mxCell id="k7D4iroLJhiQljq5lRiS-36" value="...GGACCGCC&lt;font style=&quot;color: rgb(255, 51, 51);&quot;&gt;T&lt;/font&gt;AGCTAGCG..." style="text;html=1;align=center;verticalAlign=middle;whiteSpace=wrap;rounded=0;fontSize=22;strokeColor=default;" vertex="1" parent="1">
          <mxGeometry x="130" y="610" width="310" height="30" as="geometry" />
        </mxCell>
        <mxCell id="k7D4iroLJhiQljq5lRiS-37" value="...AGACCTCC&lt;font style=&quot;color: rgb(255, 51, 51);&quot;&gt;T&lt;/font&gt;AGCTCGCG..." style="text;html=1;align=center;verticalAlign=middle;whiteSpace=wrap;rounded=0;fontSize=22;strokeColor=default;" vertex="1" parent="1">
          <mxGeometry x="130" y="730" width="310" height="30" as="geometry" />
        </mxCell>
      </root>
    </mxGraphModel>
  </diagram>
</mxfile>
